<?xml version="1.0" encoding="UTF-8" standalone="no"?>
<!DOCTYPE svg PUBLIC "-//W3C//DTD SVG 1.1//EN"
 "http://www.w3.org/Graphics/SVG/1.1/DTD/svg11.dtd">
<!-- Generated by graphviz version 2.40.1 (20161225.0304)
 -->
<!-- Title: G Pages: 1 -->
<svg width="370pt" height="328pt"
 viewBox="0.00 0.00 370.18 327.58" xmlns="http://www.w3.org/2000/svg" xmlns:xlink="http://www.w3.org/1999/xlink">
<g id="graph0" class="graph" transform="scale(1 1) rotate(0) translate(7.992 319.592)">
<title>G</title>
<polygon fill="#eeeeff" stroke="transparent" points="-7.992,7.992 -7.992,-319.592 362.192,-319.592 362.192,7.992 -7.992,7.992"/>
<!-- core/index.js -->
<g id="node1" class="node">
<title>core/index.js</title>
<polygon fill="none" stroke="#0c821d" stroke-width="4" points="347.4007,-249.4007 238.1993,-249.4007 238.1993,-140.1993 347.4007,-140.1993 347.4007,-249.4007"/>
<text text-anchor="middle" x="292.8" y="-192.4" font-family="Fira Code" font-size="12.00" fill="#0c821d">core/index.js</text>
</g>
<!-- core/side&#45;effect.js -->
<g id="node2" class="node">
<title>core/side&#45;effect.js</title>
<polygon fill="none" stroke="#0c821d" stroke-width="4" points="208.1001,-166.7001 55.4999,-166.7001 55.4999,-14.0999 208.1001,-14.0999 208.1001,-166.7001"/>
<text text-anchor="middle" x="131.8" y="-88" font-family="Fira Code" font-size="12.00" fill="#0c821d">core/side&#45;effect.js</text>
</g>
<!-- core/trace.js -->
<g id="node3" class="node">
<title>core/trace.js</title>
<polygon fill="none" stroke="#0c821d" stroke-width="4" points="207.4007,-305.4007 98.1993,-305.4007 98.1993,-196.1993 207.4007,-196.1993 207.4007,-305.4007"/>
<text text-anchor="middle" x="152.8" y="-248.4" font-family="Fira Code" font-size="12.00" fill="#0c821d">core/trace.js</text>
</g>
<!-- debug/index.js -->
<g id="node4" class="node">
<title>debug/index.js</title>
<polygon fill="none" stroke="#0c821d" stroke-width="4" points="354.1002,-116.7002 237.4998,-116.7002 237.4998,-.0998 354.1002,-.0998 354.1002,-116.7002"/>
<text text-anchor="middle" x="295.8" y="-56" font-family="Fira Code" font-size="12.00" fill="#0c821d">debug/index.js</text>
</g>
<!-- index.js -->
<g id="node5" class="node">
<title>index.js</title>
<polygon fill="none" stroke="#0c821d" stroke-width="4" points="73.4011,-311.4011 .1989,-311.4011 .1989,-238.1989 73.4011,-238.1989 73.4011,-311.4011"/>
<text text-anchor="middle" x="36.8" y="-272.4" font-family="Fira Code" font-size="12.00" fill="#0c821d">index.js</text>
</g>
</g>
</svg>
