<?xml version="1.0" encoding="UTF-8" standalone="no"?>
<!DOCTYPE svg PUBLIC "-//W3C//DTD SVG 1.1//EN"
 "http://www.w3.org/Graphics/SVG/1.1/DTD/svg11.dtd">
<!-- Generated by graphviz version 2.40.1 (20161225.0304)
 -->
<!-- Title: G Pages: 1 -->
<svg width="571pt" height="1135pt"
 viewBox="0.00 0.00 570.75 1134.78" xmlns="http://www.w3.org/2000/svg" xmlns:xlink="http://www.w3.org/1999/xlink">
<g id="graph0" class="graph" transform="scale(1 1) rotate(0) translate(7.992 1126.792)">
<title>G</title>
<polygon fill="#eeeeff" stroke="transparent" points="-7.992,7.992 -7.992,-1126.792 562.7602,-1126.792 562.7602,7.992 -7.992,7.992"/>
<!-- core/
index.js -->
<g id="node1" class="node">
<title>core/
index.js</title>
<polygon fill="none" stroke="#242424" stroke-width="4" points="508.1022,-799.0011 434.9,-799.0011 434.9,-725.7989 508.1022,-725.7989 508.1022,-799.0011"/>
<text text-anchor="middle" x="471.5011" y="-767.2" font-family="Fira Code" font-size="12.00" fill="#242424">core/</text>
<text text-anchor="middle" x="471.5011" y="-752.8" font-family="Fira Code" font-size="12.00" fill="#242424">index.js</text>
</g>
<!-- core/
side&#45;effect.js -->
<g id="node2" class="node">
<title>core/
side&#45;effect.js</title>
<polygon fill="none" stroke="#242424" stroke-width="4" points="460.8013,-312.5002 344.2009,-312.5002 344.2009,-195.8998 460.8013,-195.8998 460.8013,-312.5002"/>
<text text-anchor="middle" x="402.5011" y="-259" font-family="Fira Code" font-size="12.00" fill="#242424">core/</text>
<text text-anchor="middle" x="402.5011" y="-244.6" font-family="Fira Code" font-size="12.00" fill="#242424">side&#45;effect.js</text>
</g>
<!-- core/
index.js&#45;&gt;core/
side&#45;effect.js -->
<g id="edge1" class="edge">
<title>core/
index.js&#45;&gt;core/
side&#45;effect.js</title>
<path fill="none" stroke="#242424" d="M466.4832,-725.4421C454.9919,-640.8058 426.6213,-431.8504 411.8222,-322.852"/>
<polygon fill="#242424" stroke="#242424" points="415.2471,-322.0616 410.4334,-312.6234 408.3107,-323.0034 415.2471,-322.0616"/>
</g>
<!-- core/
trace.js -->
<g id="node3" class="node">
<title>core/
trace.js</title>
<polygon fill="none" stroke="#242424" stroke-width="4" points="540.1022,-628.4011 466.9,-628.4011 466.9,-555.1989 540.1022,-555.1989 540.1022,-628.4011"/>
<text text-anchor="middle" x="503.5011" y="-596.6" font-family="Fira Code" font-size="12.00" fill="#242424">core/</text>
<text text-anchor="middle" x="503.5011" y="-582.2" font-family="Fira Code" font-size="12.00" fill="#242424">trace.js</text>
</g>
<!-- core/
index.js&#45;&gt;core/
trace.js -->
<g id="edge2" class="edge">
<title>core/
index.js&#45;&gt;core/
trace.js</title>
<path fill="none" stroke="#242424" d="M478.4446,-725.3823C483.2204,-699.9217 489.6012,-665.9038 494.7284,-638.5692"/>
<polygon fill="#242424" stroke="#242424" points="498.2225,-638.9259 496.6262,-628.452 491.3425,-637.6353 498.2225,-638.9259"/>
</g>
<!-- core/
xtrace.js -->
<g id="node4" class="node">
<title>core/
xtrace.js</title>
<polygon fill="none" stroke="#242424" stroke-width="4" points="544.8013,-472.3002 464.2009,-472.3002 464.2009,-391.6998 544.8013,-391.6998 544.8013,-472.3002"/>
<text text-anchor="middle" x="504.5011" y="-436.8" font-family="Fira Code" font-size="12.00" fill="#242424">core/</text>
<text text-anchor="middle" x="504.5011" y="-422.4" font-family="Fira Code" font-size="12.00" fill="#242424">xtrace.js</text>
</g>
<!-- core/
index.js&#45;&gt;core/
xtrace.js -->
<g id="edge3" class="edge">
<title>core/
index.js&#45;&gt;core/
xtrace.js</title>
<path fill="none" stroke="#242424" d="M500.9489,-725.6131C518.8447,-700.8176 540.0172,-666.485 549.5011,-632.2 563.5255,-581.5006 546.3995,-522.6812 529.3926,-481.977"/>
<polygon fill="#242424" stroke="#242424" points="532.4992,-480.3425 525.3207,-472.5501 526.0731,-483.1182 532.4992,-480.3425"/>
</g>
<!-- katsu&#45;curry/
katsu&#45;curry.js -->
<g id="node5" class="node">
<title>katsu&#45;curry/
katsu&#45;curry.js</title>
<polygon fill="none" stroke="#0c821d" stroke-width="4" points="367.8013,-116.7002 251.2009,-116.7002 251.2009,-.0998 367.8013,-.0998 367.8013,-116.7002"/>
<text text-anchor="middle" x="309.5011" y="-63.2" font-family="Fira Code" font-size="12.00" fill="#0c821d">katsu&#45;curry/</text>
<text text-anchor="middle" x="309.5011" y="-48.8" font-family="Fira Code" font-size="12.00" fill="#0c821d">katsu&#45;curry.js</text>
</g>
<!-- core/
side&#45;effect.js&#45;&gt;katsu&#45;curry/
katsu&#45;curry.js -->
<g id="edge4" class="edge">
<title>core/
side&#45;effect.js&#45;&gt;katsu&#45;curry/
katsu&#45;curry.js</title>
<path fill="none" stroke="#242424" d="M374.724,-195.7188C364.3277,-173.8307 352.4325,-148.7867 341.6719,-126.1316"/>
<polygon fill="#242424" stroke="#242424" points="344.7476,-124.4492 337.2957,-116.918 338.4246,-127.4525 344.7476,-124.4492"/>
</g>
<!-- core/
trace.js&#45;&gt;core/
xtrace.js -->
<g id="edge5" class="edge">
<title>core/
trace.js&#45;&gt;core/
xtrace.js</title>
<path fill="none" stroke="#242424" d="M503.7305,-555.1387C503.8651,-533.627 504.0372,-506.1316 504.1846,-482.5815"/>
<polygon fill="#242424" stroke="#242424" points="507.6854,-482.4396 504.2482,-472.4179 500.6856,-482.3957 507.6854,-482.4396"/>
</g>
<!-- core/
xtrace.js&#45;&gt;core/
side&#45;effect.js -->
<g id="edge7" class="edge">
<title>core/
xtrace.js&#45;&gt;core/
side&#45;effect.js</title>
<path fill="none" stroke="#242424" d="M481.3557,-391.6544C469.4725,-370.9403 454.6788,-345.153 441.1261,-321.5286"/>
<polygon fill="#242424" stroke="#242424" points="444.0133,-319.5277 436.0012,-312.5953 437.9415,-323.011 444.0133,-319.5277"/>
</g>
<!-- core/
xtrace.js&#45;&gt;katsu&#45;curry/
katsu&#45;curry.js -->
<g id="edge6" class="edge">
<title>core/
xtrace.js&#45;&gt;katsu&#45;curry/
katsu&#45;curry.js</title>
<path fill="none" stroke="#242424" d="M506.8227,-391.2671C507.8339,-341.9106 503.6458,-257.6857 469.5011,-195.8 447.7324,-156.3453 409.9158,-123.0706 376.5121,-99.1526"/>
<polygon fill="#242424" stroke="#242424" points="378.3248,-96.149 368.1272,-93.2752 374.3069,-101.8811 378.3248,-96.149"/>
</g>
<!-- debug/
effect.js -->
<g id="node6" class="node">
<title>debug/
effect.js</title>
<polygon fill="none" stroke="#242424" stroke-width="4" points="280.8013,-632.1002 200.2009,-632.1002 200.2009,-551.4998 280.8013,-551.4998 280.8013,-632.1002"/>
<text text-anchor="middle" x="240.5011" y="-596.6" font-family="Fira Code" font-size="12.00" fill="#242424">debug/</text>
<text text-anchor="middle" x="240.5011" y="-582.2" font-family="Fira Code" font-size="12.00" fill="#242424">effect.js</text>
</g>
<!-- debug/
effect.js&#45;&gt;core/
side&#45;effect.js -->
<g id="edge8" class="edge">
<title>debug/
effect.js&#45;&gt;core/
side&#45;effect.js</title>
<path fill="none" stroke="#242424" d="M259.8812,-551.4129C287.1285,-494.6307 337.1102,-390.4715 370.074,-321.7765"/>
<polygon fill="#242424" stroke="#242424" points="373.2367,-323.2756 374.4075,-312.7456 366.9257,-320.2472 373.2367,-323.2756"/>
</g>
<!-- debug/
wrap.js -->
<g id="node7" class="node">
<title>debug/
wrap.js</title>
<polygon fill="none" stroke="#242424" stroke-width="4" points="231.9023,-465.4012 165.0999,-465.4012 165.0999,-398.5988 231.9023,-398.5988 231.9023,-465.4012"/>
<text text-anchor="middle" x="198.5011" y="-436.8" font-family="Fira Code" font-size="12.00" fill="#242424">debug/</text>
<text text-anchor="middle" x="198.5011" y="-422.4" font-family="Fira Code" font-size="12.00" fill="#242424">wrap.js</text>
</g>
<!-- debug/
effect.js&#45;&gt;debug/
wrap.js -->
<g id="edge9" class="edge">
<title>debug/
effect.js&#45;&gt;debug/
wrap.js</title>
<path fill="none" stroke="#242424" d="M229.9027,-551.4757C223.7789,-528.1758 216.0762,-498.869 209.8323,-475.1126"/>
<polygon fill="#242424" stroke="#242424" points="213.1816,-474.0866 207.2546,-465.3048 206.4115,-475.866 213.1816,-474.0866"/>
</g>
<!-- debug/
wrap.js&#45;&gt;katsu&#45;curry/
katsu&#45;curry.js -->
<g id="edge20" class="edge">
<title>debug/
wrap.js&#45;&gt;katsu&#45;curry/
katsu&#45;curry.js</title>
<path fill="none" stroke="#242424" d="M215.7457,-398.7704C227.4154,-375.2149 242.4737,-342.5914 252.5011,-312.6 273.0718,-251.0741 288.4854,-178.6911 298.063,-126.933"/>
<polygon fill="#242424" stroke="#242424" points="301.548,-127.3316 299.9005,-116.8657 294.6618,-126.0747 301.548,-127.3316"/>
</g>
<!-- ramda/
src/map.js -->
<g id="node12" class="node">
<title>ramda/
src/map.js</title>
<polygon fill="none" stroke="#0c821d" stroke-width="4" points="129.5011,-298.2 41.5011,-298.2 41.5011,-210.2 129.5011,-210.2 129.5011,-298.2"/>
<text text-anchor="middle" x="85.5011" y="-259" font-family="Fira Code" font-size="12.00" fill="#0c821d">ramda/</text>
<text text-anchor="middle" x="85.5011" y="-244.6" font-family="Fira Code" font-size="12.00" fill="#0c821d">src/map.js</text>
</g>
<!-- debug/
wrap.js&#45;&gt;ramda/
src/map.js -->
<g id="edge21" class="edge">
<title>debug/
wrap.js&#45;&gt;ramda/
src/map.js</title>
<path fill="none" stroke="#242424" d="M177.2467,-398.5572C160.8375,-372.7382 137.8246,-336.5284 118.9523,-306.8339"/>
<polygon fill="#242424" stroke="#242424" points="121.8127,-304.8093 113.4949,-298.2469 115.9049,-308.564 121.8127,-304.8093"/>
</g>
<!-- ramda/
src/pipe.js -->
<g id="node13" class="node">
<title>ramda/
src/pipe.js</title>
<polygon fill="none" stroke="#0c821d" stroke-width="4" points="243.2013,-301.9002 147.8009,-301.9002 147.8009,-206.4998 243.2013,-206.4998 243.2013,-301.9002"/>
<text text-anchor="middle" x="195.5011" y="-259" font-family="Fira Code" font-size="12.00" fill="#0c821d">ramda/</text>
<text text-anchor="middle" x="195.5011" y="-244.6" font-family="Fira Code" font-size="12.00" fill="#0c821d">src/pipe.js</text>
</g>
<!-- debug/
wrap.js&#45;&gt;ramda/
src/pipe.js -->
<g id="edge22" class="edge">
<title>debug/
wrap.js&#45;&gt;ramda/
src/pipe.js</title>
<path fill="none" stroke="#242424" d="M197.9368,-398.5572C197.5272,-374.2778 196.9625,-340.8098 196.4799,-312.2118"/>
<polygon fill="#242424" stroke="#242424" points="199.9746,-311.8615 196.3063,-301.922 192.9756,-311.9797 199.9746,-311.8615"/>
</g>
<!-- debug/
generate.js -->
<g id="node8" class="node">
<title>debug/
generate.js</title>
<polygon fill="none" stroke="#242424" stroke-width="4" points="345.2013,-810.1002 249.8009,-810.1002 249.8009,-714.6998 345.2013,-714.6998 345.2013,-810.1002"/>
<text text-anchor="middle" x="297.5011" y="-767.2" font-family="Fira Code" font-size="12.00" fill="#242424">debug/</text>
<text text-anchor="middle" x="297.5011" y="-752.8" font-family="Fira Code" font-size="12.00" fill="#242424">generate.js</text>
</g>
<!-- debug/
generate.js&#45;&gt;katsu&#45;curry/
katsu&#45;curry.js -->
<g id="edge10" class="edge">
<title>debug/
generate.js&#45;&gt;katsu&#45;curry/
katsu&#45;curry.js</title>
<path fill="none" stroke="#242424" d="M298.3165,-714.5647C300.3969,-592.5134 305.9084,-269.1705 308.3309,-127.0515"/>
<polygon fill="#242424" stroke="#242424" points="311.8358,-126.7866 308.5069,-116.7284 304.8369,-126.6672 311.8358,-126.7866"/>
</g>
<!-- debug/
generate.js&#45;&gt;debug/
effect.js -->
<g id="edge11" class="edge">
<title>debug/
generate.js&#45;&gt;debug/
effect.js</title>
<path fill="none" stroke="#242424" d="M281.4717,-714.4244C273.8942,-691.7448 264.8515,-664.6803 257.1916,-641.7543"/>
<polygon fill="#242424" stroke="#242424" points="260.4903,-640.5825 254.0017,-632.207 253.8511,-642.8008 260.4903,-640.5825"/>
</g>
<!-- debug/
trace.js -->
<g id="node9" class="node">
<title>debug/
trace.js</title>
<polygon fill="none" stroke="#242424" stroke-width="4" points="410.1022,-628.4011 336.9,-628.4011 336.9,-555.1989 410.1022,-555.1989 410.1022,-628.4011"/>
<text text-anchor="middle" x="373.5011" y="-596.6" font-family="Fira Code" font-size="12.00" fill="#242424">debug/</text>
<text text-anchor="middle" x="373.5011" y="-582.2" font-family="Fira Code" font-size="12.00" fill="#242424">trace.js</text>
</g>
<!-- debug/
generate.js&#45;&gt;debug/
trace.js -->
<g id="edge12" class="edge">
<title>debug/
generate.js&#45;&gt;debug/
trace.js</title>
<path fill="none" stroke="#242424" d="M318.8736,-714.4244C329.5711,-690.4113 342.4585,-661.4824 353.0289,-637.7548"/>
<polygon fill="#242424" stroke="#242424" points="356.233,-639.1632 357.1053,-628.6043 349.8388,-636.3146 356.233,-639.1632"/>
</g>
<!-- debug/
trace.js&#45;&gt;core/
xtrace.js -->
<g id="edge18" class="edge">
<title>debug/
trace.js&#45;&gt;core/
xtrace.js</title>
<path fill="none" stroke="#242424" d="M403.5551,-555.1387C421.7434,-532.9518 445.1498,-504.3995 464.8439,-480.3757"/>
<polygon fill="#242424" stroke="#242424" points="467.7345,-482.3703 471.3676,-472.4179 462.321,-477.9325 467.7345,-482.3703"/>
</g>
<!-- debug/
trace.js&#45;&gt;debug/
wrap.js -->
<g id="edge19" class="edge">
<title>debug/
trace.js&#45;&gt;debug/
wrap.js</title>
<path fill="none" stroke="#242424" d="M336.8154,-558.3007C308.3861,-532.3407 269.0048,-496.3799 239.5321,-469.4672"/>
<polygon fill="#242424" stroke="#242424" points="241.6278,-466.6412 231.8832,-462.4826 236.9076,-471.8103 241.6278,-466.6412"/>
</g>
<!-- debug/
index.js -->
<g id="node10" class="node">
<title>debug/
index.js</title>
<polygon fill="none" stroke="#242424" stroke-width="4" points="258.1022,-966.0011 184.9,-966.0011 184.9,-892.7989 258.1022,-892.7989 258.1022,-966.0011"/>
<text text-anchor="middle" x="221.5011" y="-934.2" font-family="Fira Code" font-size="12.00" fill="#242424">debug/</text>
<text text-anchor="middle" x="221.5011" y="-919.8" font-family="Fira Code" font-size="12.00" fill="#242424">index.js</text>
</g>
<!-- debug/
index.js&#45;&gt;debug/
effect.js -->
<g id="edge14" class="edge">
<title>debug/
index.js&#45;&gt;debug/
effect.js</title>
<path fill="none" stroke="#242424" d="M223.5706,-892.6282C226.9829,-831.9967 233.7957,-710.9447 237.6578,-642.3217"/>
<polygon fill="#242424" stroke="#242424" points="241.1608,-642.3641 238.2283,-632.1832 234.1719,-641.9707 241.1608,-642.3641"/>
</g>
<!-- debug/
index.js&#45;&gt;debug/
wrap.js -->
<g id="edge17" class="edge">
<title>debug/
index.js&#45;&gt;debug/
wrap.js</title>
<path fill="none" stroke="#242424" d="M216.5602,-892.4241C209.3354,-836.3045 196.2336,-726.2058 191.5011,-632.2 189.6955,-596.3343 190.4498,-587.2957 191.5011,-551.4 192.2391,-526.2011 193.8515,-498.0492 195.3429,-475.4125"/>
<polygon fill="#242424" stroke="#242424" points="198.8352,-475.6433 196.0161,-465.4304 191.8511,-475.1722 198.8352,-475.6433"/>
</g>
<!-- debug/
index.js&#45;&gt;debug/
generate.js -->
<g id="edge15" class="edge">
<title>debug/
index.js&#45;&gt;debug/
generate.js</title>
<path fill="none" stroke="#242424" d="M238.1796,-892.7511C247.9822,-871.2114 260.5834,-843.5217 271.6489,-819.2068"/>
<polygon fill="#242424" stroke="#242424" points="274.849,-820.6246 275.8056,-810.073 268.4778,-817.7251 274.849,-820.6246"/>
</g>
<!-- debug/
index.js&#45;&gt;debug/
trace.js -->
<g id="edge16" class="edge">
<title>debug/
index.js&#45;&gt;debug/
trace.js</title>
<path fill="none" stroke="#242424" d="M258.1571,-908.7251C289.642,-888.7873 333.2201,-855.5011 354.5011,-813.6 382.4862,-758.4989 382.9236,-685.6947 379.3089,-638.8019"/>
<polygon fill="#242424" stroke="#242424" points="382.7776,-638.2874 378.4294,-628.6259 375.8036,-638.8902 382.7776,-638.2874"/>
</g>
<!-- debug/
src/index.js -->
<g id="node11" class="node">
<title>debug/
src/index.js</title>
<polygon fill="none" stroke="#0c821d" stroke-width="4" points="144.9019,-813.8008 42.1003,-813.8008 42.1003,-710.9992 144.9019,-710.9992 144.9019,-813.8008"/>
<text text-anchor="middle" x="93.5011" y="-767.2" font-family="Fira Code" font-size="12.00" fill="#0c821d">debug/</text>
<text text-anchor="middle" x="93.5011" y="-752.8" font-family="Fira Code" font-size="12.00" fill="#0c821d">src/index.js</text>
</g>
<!-- debug/
index.js&#45;&gt;debug/
src/index.js -->
<g id="edge13" class="edge">
<title>debug/
index.js&#45;&gt;debug/
src/index.js</title>
<path fill="none" stroke="#242424" d="M193.411,-892.7511C177.5459,-872.0522 157.3281,-845.6742 139.2357,-822.0693"/>
<polygon fill="#242424" stroke="#242424" points="141.7967,-819.6572 132.9354,-813.8495 136.2409,-823.9155 141.7967,-819.6572"/>
</g>
<!-- index.js -->
<g id="node14" class="node">
<title>index.js</title>
<polygon fill="none" stroke="#242424" stroke-width="4" points="258.1022,-1118.6011 184.9,-1118.6011 184.9,-1045.3989 258.1022,-1045.3989 258.1022,-1118.6011"/>
<text text-anchor="middle" x="221.5011" y="-1079.6" font-family="Fira Code" font-size="12.00" fill="#242424">index.js</text>
</g>
<!-- index.js&#45;&gt;core/
index.js -->
<g id="edge24" class="edge">
<title>index.js&#45;&gt;core/
index.js</title>
<path fill="none" stroke="#242424" d="M250.1793,-1045.3378C296.2085,-986.494 386.4518,-871.1271 436.3097,-807.3887"/>
<polygon fill="#242424" stroke="#242424" points="439.3689,-809.1585 442.7734,-799.1255 433.8553,-804.8456 439.3689,-809.1585"/>
</g>
<!-- index.js&#45;&gt;katsu&#45;curry/
katsu&#45;curry.js -->
<g id="edge23" class="edge">
<title>index.js&#45;&gt;katsu&#45;curry/
katsu&#45;curry.js</title>
<path fill="none" stroke="#242424" d="M184.7937,-1052.2598C125.081,-1000.2752 13.5011,-886.529 13.5011,-762.4 13.5011,-762.4 13.5011,-762.4 13.5011,-432 13.5011,-326.6831 -26.556,-283.0003 32.5011,-195.8 80.4603,-124.9862 176.0119,-89.0966 241.3423,-72.0887"/>
<polygon fill="#242424" stroke="#242424" points="242.3122,-75.4538 251.154,-69.6165 240.6019,-68.6659 242.3122,-75.4538"/>
</g>
<!-- index.js&#45;&gt;debug/
index.js -->
<g id="edge25" class="edge">
<title>index.js&#45;&gt;debug/
index.js</title>
<path fill="none" stroke="#242424" d="M221.5011,-1045.0598C221.5011,-1024.4236 221.5011,-998.4979 221.5011,-976.4251"/>
<polygon fill="#242424" stroke="#242424" points="225.0012,-976.2642 221.5011,-966.2642 218.0012,-976.2642 225.0012,-976.2642"/>
</g>
</g>
</svg>
