<?xml version="1.0" encoding="UTF-8" standalone="no"?>
<!DOCTYPE svg PUBLIC "-//W3C//DTD SVG 1.1//EN"
 "http://www.w3.org/Graphics/SVG/1.1/DTD/svg11.dtd">
<!-- Generated by graphviz version 2.40.1 (20161225.0304)
 -->
<!-- Title: G Pages: 1 -->
<svg width="574pt" height="859pt"
 viewBox="0.00 0.00 574.49 859.38" xmlns="http://www.w3.org/2000/svg" xmlns:xlink="http://www.w3.org/1999/xlink">
<g id="graph0" class="graph" transform="scale(1 1) rotate(0) translate(7.992 851.392)">
<title>G</title>
<polygon fill="#eeeeff" stroke="transparent" points="-7.992,7.992 -7.992,-851.392 566.4992,-851.392 566.4992,7.992 -7.992,7.992"/>
<!-- core/index.js -->
<g id="node1" class="node">
<title>core/index.js</title>
<polygon fill="none" stroke="#242424" stroke-width="4" points="223.0007,-687.0007 113.7993,-687.0007 113.7993,-577.7993 223.0007,-577.7993 223.0007,-687.0007"/>
<text text-anchor="middle" x="168.4" y="-630" font-family="Fira Code" font-size="12.00" fill="#242424">core/index.js</text>
</g>
<!-- core/side&#45;effect.js -->
<g id="node2" class="node">
<title>core/side&#45;effect.js</title>
<polygon fill="none" stroke="#242424" stroke-width="4" points="314.7001,-474.5001 162.0999,-474.5001 162.0999,-321.8999 314.7001,-321.8999 314.7001,-474.5001"/>
<text text-anchor="middle" x="238.4" y="-395.8" font-family="Fira Code" font-size="12.00" fill="#242424">core/side&#45;effect.js</text>
</g>
<!-- core/index.js&#45;&gt;core/side&#45;effect.js -->
<g id="edge1" class="edge">
<title>core/index.js&#45;&gt;core/side&#45;effect.js</title>
<path fill="none" stroke="#242424" d="M184.7235,-577.7861C193.0344,-549.9802 203.3323,-515.5267 212.6786,-484.2564"/>
<polygon fill="#242424" stroke="#242424" points="216.035,-485.2484 215.5454,-474.6649 209.3282,-483.2438 216.035,-485.2484"/>
</g>
<!-- core/trace.js -->
<g id="node3" class="node">
<title>core/trace.js</title>
<polygon fill="none" stroke="#242424" stroke-width="4" points="144.0007,-452.8007 34.7993,-452.8007 34.7993,-343.5993 144.0007,-343.5993 144.0007,-452.8007"/>
<text text-anchor="middle" x="89.4" y="-395.8" font-family="Fira Code" font-size="12.00" fill="#242424">core/trace.js</text>
</g>
<!-- core/index.js&#45;&gt;core/trace.js -->
<g id="edge2" class="edge">
<title>core/index.js&#45;&gt;core/trace.js</title>
<path fill="none" stroke="#242424" d="M149.9777,-577.7861C138.3425,-543.2927 123.2565,-498.5696 111.0503,-462.3835"/>
<polygon fill="#242424" stroke="#242424" points="114.3642,-461.2572 107.8515,-452.9005 107.7314,-463.4946 114.3642,-461.2572"/>
</g>
<!-- core/xtrace.js -->
<g id="node4" class="node">
<title>core/xtrace.js</title>
<polygon fill="none" stroke="#0c821d" stroke-width="4" points="116.7002,-169.5002 .0998,-169.5002 .0998,-52.8998 116.7002,-52.8998 116.7002,-169.5002"/>
<text text-anchor="middle" x="58.4" y="-108.8" font-family="Fira Code" font-size="12.00" fill="#0c821d">core/xtrace.js</text>
</g>
<!-- core/index.js&#45;&gt;core/xtrace.js -->
<g id="edge3" class="edge">
<title>core/index.js&#45;&gt;core/xtrace.js</title>
<path fill="none" stroke="#242424" d="M113.5151,-596.8992C81.2415,-572.5685 43.3449,-537.1282 25.4,-495 -18.5839,-391.7416 9.2818,-258.9272 33.6966,-179.6836"/>
<polygon fill="#242424" stroke="#242424" points="37.1385,-180.4059 36.8044,-169.8163 30.4618,-178.303 37.1385,-180.4059"/>
</g>
<!-- Ⓜ katsu&#45;curry/katsu&#45;curry.js -->
<g id="node5" class="node">
<title>Ⓜ katsu&#45;curry/katsu&#45;curry.js</title>
<polygon fill="none" stroke="#0c821d" stroke-width="4" points="379.8004,-222.6004 156.9996,-222.6004 156.9996,.2004 379.8004,.2004 379.8004,-222.6004"/>
<text text-anchor="middle" x="268.4" y="-110" font-family="Fira Code" font-size="12.00" fill="#0c821d">Ⓜ katsu&#45;curry/katsu&#45;curry.js</text>
</g>
<!-- core/side&#45;effect.js&#45;&gt;Ⓜ katsu&#45;curry/katsu&#45;curry.js -->
<g id="edge4" class="edge">
<title>core/side&#45;effect.js&#45;&gt;Ⓜ katsu&#45;curry/katsu&#45;curry.js</title>
<path fill="none" stroke="#242424" d="M246.4,-321.6663C249.2539,-294.3647 252.5435,-262.8943 255.6947,-232.7478"/>
<polygon fill="#242424" stroke="#242424" points="259.1985,-232.8926 256.7572,-222.5829 252.2364,-232.1648 259.1985,-232.8926"/>
</g>
<!-- core/trace.js&#45;&gt;core/xtrace.js -->
<g id="edge5" class="edge">
<title>core/trace.js&#45;&gt;core/xtrace.js</title>
<path fill="none" stroke="#242424" d="M83.4962,-343.542C78.4671,-296.9825 71.216,-229.8515 65.8,-179.7095"/>
<polygon fill="#242424" stroke="#242424" points="69.2618,-179.1666 64.708,-169.6003 62.3023,-179.9184 69.2618,-179.1666"/>
</g>
<!-- debug/index.js -->
<g id="node6" class="node">
<title>debug/index.js</title>
<polygon fill="none" stroke="#242424" stroke-width="4" points="366.7002,-690.7002 250.0998,-690.7002 250.0998,-574.0998 366.7002,-574.0998 366.7002,-690.7002"/>
<text text-anchor="middle" x="308.4" y="-630" font-family="Fira Code" font-size="12.00" fill="#242424">debug/index.js</text>
</g>
<!-- debug/index.js&#45;&gt;core/side&#45;effect.js -->
<g id="edge7" class="edge">
<title>debug/index.js&#45;&gt;core/side&#45;effect.js</title>
<path fill="none" stroke="#242424" d="M290.9166,-573.9056C282.8046,-546.7652 273.0012,-513.9657 264.0716,-484.0899"/>
<polygon fill="#242424" stroke="#242424" points="267.4236,-483.0824 261.2064,-474.5036 260.7167,-485.0871 267.4236,-483.0824"/>
</g>
<!-- Ⓜ f&#45;utility/f&#45;utility.js -->
<g id="node7" class="node">
<title>Ⓜ f&#45;utility/f&#45;utility.js</title>
<polygon fill="none" stroke="#0c821d" stroke-width="4" points="526.0004,-494.8004 332.7996,-494.8004 332.7996,-301.5996 526.0004,-301.5996 526.0004,-494.8004"/>
<text text-anchor="middle" x="429.4" y="-397" font-family="Fira Code" font-size="12.00" fill="#0c821d">Ⓜ f&#45;utility/f&#45;utility.js</text>
</g>
<!-- debug/index.js&#45;&gt;Ⓜ f&#45;utility/f&#45;utility.js -->
<g id="edge6" class="edge">
<title>debug/index.js&#45;&gt;Ⓜ f&#45;utility/f&#45;utility.js</title>
<path fill="none" stroke="#242424" d="M338.6213,-573.9056C349.5455,-552.7614 362.2442,-528.1826 374.6207,-504.2273"/>
<polygon fill="#242424" stroke="#242424" points="377.8634,-505.5761 379.344,-495.0852 371.6444,-502.363 377.8634,-505.5761"/>
</g>
<!-- index.js -->
<g id="node8" class="node">
<title>index.js</title>
<polygon fill="none" stroke="#242424" stroke-width="4" points="345.0011,-843.2011 271.7989,-843.2011 271.7989,-769.9989 345.0011,-769.9989 345.0011,-843.2011"/>
<text text-anchor="middle" x="308.4" y="-804.2" font-family="Fira Code" font-size="12.00" fill="#242424">index.js</text>
</g>
<!-- index.js&#45;&gt;core/index.js -->
<g id="edge9" class="edge">
<title>index.js&#45;&gt;core/index.js</title>
<path fill="none" stroke="#242424" d="M278.7096,-769.6567C261.3272,-748.028 238.9143,-720.1399 218.8362,-695.157"/>
<polygon fill="#242424" stroke="#242424" points="221.4013,-692.7616 212.4087,-687.1594 215.945,-697.1467 221.4013,-692.7616"/>
</g>
<!-- index.js&#45;&gt;Ⓜ katsu&#45;curry/katsu&#45;curry.js -->
<g id="edge8" class="edge">
<title>index.js&#45;&gt;Ⓜ katsu&#45;curry/katsu&#45;curry.js</title>
<path fill="none" stroke="#242424" d="M345.0596,-772.9147C429.6916,-690.9112 624.8287,-474.9046 535.4,-301.4 504.2144,-240.8953 443.8901,-195.4105 388.4609,-164.1176"/>
<polygon fill="#242424" stroke="#242424" points="390.0558,-161 379.6121,-159.217 386.6645,-167.1236 390.0558,-161"/>
</g>
<!-- index.js&#45;&gt;debug/index.js -->
<g id="edge10" class="edge">
<title>index.js&#45;&gt;debug/index.js</title>
<path fill="none" stroke="#242424" d="M308.4,-769.6567C308.4,-749.734 308.4,-724.5005 308.4,-701.1186"/>
<polygon fill="#242424" stroke="#242424" points="311.9001,-700.8831 308.4,-690.8831 304.9001,-700.8831 311.9001,-700.8831"/>
</g>
</g>
</svg>
