<?xml version="1.0" encoding="UTF-8" standalone="no"?>
<!DOCTYPE svg PUBLIC "-//W3C//DTD SVG 1.1//EN"
 "http://www.w3.org/Graphics/SVG/1.1/DTD/svg11.dtd">
<!-- Generated by graphviz version 2.40.1 (20161225.0304)
 -->
<!-- Title: G Pages: 1 -->
<svg width="338pt" height="711pt"
 viewBox="0.00 0.00 338.18 710.58" xmlns="http://www.w3.org/2000/svg" xmlns:xlink="http://www.w3.org/1999/xlink">
<g id="graph0" class="graph" transform="scale(1 1) rotate(0) translate(7.992 702.592)">
<title>G</title>
<polygon fill="#eeeeff" stroke="transparent" points="-7.992,7.992 -7.992,-702.592 330.192,-702.592 330.192,7.992 -7.992,7.992"/>
<!-- debug.js -->
<g id="node1" class="node">
<title>debug.js</title>
<polygon fill="none" stroke="#242424" stroke-width="4" points="116.4011,-541.8011 43.1989,-541.8011 43.1989,-468.5989 116.4011,-468.5989 116.4011,-541.8011"/>
<text text-anchor="middle" x="79.8" y="-502.8" font-family="Fira Code" font-size="12.00" fill="#242424">debug.js</text>
</g>
<!-- Ⓜ f&#45;utility/f&#45;utility.js -->
<g id="node2" class="node">
<title>Ⓜ f&#45;utility/f&#45;utility.js</title>
<polygon fill="none" stroke="#0c821d" stroke-width="4" points="193.4004,-193.4004 .1996,-193.4004 .1996,-.1996 193.4004,-.1996 193.4004,-193.4004"/>
<text text-anchor="middle" x="96.8" y="-95.6" font-family="Fira Code" font-size="12.00" fill="#0c821d">Ⓜ f&#45;utility/f&#45;utility.js</text>
</g>
<!-- debug.js&#45;&gt;Ⓜ f&#45;utility/f&#45;utility.js -->
<g id="edge1" class="edge">
<title>debug.js&#45;&gt;Ⓜ f&#45;utility/f&#45;utility.js</title>
<path fill="none" stroke="#242424" d="M59.3142,-468.4036C48.1687,-446.252 35.5173,-417.064 29.8,-389.4 19.2936,-338.5632 20.4012,-323.6532 29.8,-272.6 34.0431,-249.5521 41.1708,-225.614 49.2328,-203.0952"/>
<polygon fill="#242424" stroke="#242424" points="52.5807,-204.1315 52.7395,-193.5379 46.0091,-201.7203 52.5807,-204.1315"/>
</g>
<!-- side&#45;effect.js -->
<g id="node3" class="node">
<title>side&#45;effect.js</title>
<polygon fill="none" stroke="#242424" stroke-width="4" points="155.1002,-389.3002 38.4998,-389.3002 38.4998,-272.6998 155.1002,-272.6998 155.1002,-389.3002"/>
<text text-anchor="middle" x="96.8" y="-328.6" font-family="Fira Code" font-size="12.00" fill="#242424">side&#45;effect.js</text>
</g>
<!-- debug.js&#45;&gt;side&#45;effect.js -->
<g id="edge2" class="edge">
<title>debug.js&#45;&gt;side&#45;effect.js</title>
<path fill="none" stroke="#242424" d="M83.4053,-468.2567C85.3495,-448.334 87.812,-423.1005 90.0938,-399.7186"/>
<polygon fill="#242424" stroke="#242424" points="93.6048,-399.7758 91.0927,-389.4831 86.6379,-399.0958 93.6048,-399.7758"/>
</g>
<!-- side&#45;effect.js&#45;&gt;Ⓜ f&#45;utility/f&#45;utility.js -->
<g id="edge8" class="edge">
<title>side&#45;effect.js&#45;&gt;Ⓜ f&#45;utility/f&#45;utility.js</title>
<path fill="none" stroke="#242424" d="M96.8,-272.5056C96.8,-251.6409 96.8,-227.4316 96.8,-203.7774"/>
<polygon fill="#242424" stroke="#242424" points="100.3001,-203.6852 96.8,-193.6852 93.3001,-203.6852 100.3001,-203.6852"/>
</g>
<!-- index.js -->
<g id="node4" class="node">
<title>index.js</title>
<polygon fill="none" stroke="#242424" stroke-width="4" points="219.4011,-694.4011 146.1989,-694.4011 146.1989,-621.1989 219.4011,-621.1989 219.4011,-694.4011"/>
<text text-anchor="middle" x="182.8" y="-655.4" font-family="Fira Code" font-size="12.00" fill="#242424">index.js</text>
</g>
<!-- index.js&#45;&gt;debug.js -->
<g id="edge4" class="edge">
<title>index.js&#45;&gt;debug.js</title>
<path fill="none" stroke="#242424" d="M157.8666,-620.8598C143.5597,-599.6634 125.486,-572.8863 110.3328,-550.436"/>
<polygon fill="#242424" stroke="#242424" points="113.1777,-548.3947 104.6821,-542.0642 107.3757,-552.3109 113.1777,-548.3947"/>
</g>
<!-- index.js&#45;&gt;Ⓜ f&#45;utility/f&#45;utility.js -->
<g id="edge3" class="edge">
<title>index.js&#45;&gt;Ⓜ f&#45;utility/f&#45;utility.js</title>
<path fill="none" stroke="#242424" d="M184.7896,-620.9336C187.686,-551.7844 190.1498,-398.2557 163.8,-272.6 158.9903,-249.6637 151.6136,-225.7746 143.4866,-203.2685"/>
<polygon fill="#242424" stroke="#242424" points="146.7072,-201.8857 139.963,-193.7146 140.1396,-204.3079 146.7072,-201.8857"/>
</g>
<!-- index.js&#45;&gt;side&#45;effect.js -->
<g id="edge5" class="edge">
<title>index.js&#45;&gt;side&#45;effect.js</title>
<path fill="none" stroke="#242424" d="M173.1019,-620.9471C158.9711,-567.2502 132.4774,-466.574 114.7334,-399.147"/>
<polygon fill="#242424" stroke="#242424" points="118.1112,-398.2296 112.1815,-389.4496 111.3417,-400.0111 118.1112,-398.2296"/>
</g>
<!-- trace.js -->
<g id="node5" class="node">
<title>trace.js</title>
<polygon fill="none" stroke="#242424" stroke-width="4" points="284.4011,-541.8011 211.1989,-541.8011 211.1989,-468.5989 284.4011,-468.5989 284.4011,-541.8011"/>
<text text-anchor="middle" x="247.8" y="-502.8" font-family="Fira Code" font-size="12.00" fill="#242424">trace.js</text>
</g>
<!-- index.js&#45;&gt;trace.js -->
<g id="edge6" class="edge">
<title>index.js&#45;&gt;trace.js</title>
<path fill="none" stroke="#242424" d="M198.5347,-620.8598C207.444,-599.9435 218.668,-573.593 228.1516,-551.3283"/>
<polygon fill="#242424" stroke="#242424" points="231.3989,-552.636 232.0977,-542.0642 224.9588,-549.8927 231.3989,-552.636"/>
</g>
<!-- xtrace.js -->
<g id="node6" class="node">
<title>xtrace.js</title>
<polygon fill="none" stroke="#0c821d" stroke-width="4" points="322.1002,-371.3002 241.4998,-371.3002 241.4998,-290.6998 322.1002,-290.6998 322.1002,-371.3002"/>
<text text-anchor="middle" x="281.8" y="-328.6" font-family="Fira Code" font-size="12.00" fill="#0c821d">xtrace.js</text>
</g>
<!-- index.js&#45;&gt;xtrace.js -->
<g id="edge7" class="edge">
<title>index.js&#45;&gt;xtrace.js</title>
<path fill="none" stroke="#242424" d="M219.6349,-631.8484C245.8253,-610.9761 278.8984,-579.0804 293.8,-542 314.6164,-490.2013 306.4505,-425.4425 296.3994,-381.4255"/>
<polygon fill="#242424" stroke="#242424" points="299.7629,-380.4422 294.0291,-371.533 292.9556,-382.0733 299.7629,-380.4422"/>
</g>
<!-- trace.js&#45;&gt;xtrace.js -->
<g id="edge9" class="edge">
<title>trace.js&#45;&gt;xtrace.js</title>
<path fill="none" stroke="#242424" d="M255.0105,-468.2567C259.941,-442.9951 266.5381,-409.1948 271.9518,-381.4576"/>
<polygon fill="#242424" stroke="#242424" points="275.407,-382.0253 273.8875,-371.54 268.5366,-380.6843 275.407,-382.0253"/>
</g>
</g>
</svg>
