<?xml version="1.0" encoding="UTF-8" standalone="no"?>
<!DOCTYPE svg PUBLIC "-//W3C//DTD SVG 1.1//EN"
 "http://www.w3.org/Graphics/SVG/1.1/DTD/svg11.dtd">
<!-- Generated by graphviz version 2.40.1 (20161225.0304)
 -->
<!-- Title: G Pages: 1 -->
<svg width="738pt" height="365pt"
 viewBox="0.00 0.00 737.80 365.40" xmlns="http://www.w3.org/2000/svg" xmlns:xlink="http://www.w3.org/1999/xlink">
<g id="graph0" class="graph" transform="scale(1 1) rotate(0) translate(21.6 343.8)">
<title>G</title>
<polygon fill="#eeeeff" stroke="transparent" points="-21.6,21.6 -21.6,-343.8 716.2,-343.8 716.2,21.6 -21.6,21.6"/>
<!-- debug.js -->
<g id="node1" class="node">
<title>debug.js</title>
<path fill="none" stroke="#242424" stroke-width="4" d="M214.0011,-279.0011C214.0011,-279.0011 164.7989,-279.0011 164.7989,-279.0011 158.7989,-279.0011 152.7989,-273.0011 152.7989,-267.0011 152.7989,-267.0011 152.7989,-217.7989 152.7989,-217.7989 152.7989,-211.7989 158.7989,-205.7989 164.7989,-205.7989 164.7989,-205.7989 214.0011,-205.7989 214.0011,-205.7989 220.0011,-205.7989 226.0011,-211.7989 226.0011,-217.7989 226.0011,-217.7989 226.0011,-267.0011 226.0011,-267.0011 226.0011,-273.0011 220.0011,-279.0011 214.0011,-279.0011"/>
<text text-anchor="middle" x="189.4" y="-240" font-family="Fira Code" font-size="12.00" fill="#242424">debug.js</text>
</g>
<!-- Ⓜ f&#45;utility/f&#45;utility.js -->
<g id="node2" class="node">
<title>Ⓜ f&#45;utility/f&#45;utility.js</title>
<path fill="none" stroke="#0c821d" stroke-width="4" d="M682.4004,-322.0004C682.4004,-322.0004 513.1996,-322.0004 513.1996,-322.0004 507.1996,-322.0004 501.1996,-316.0004 501.1996,-310.0004 501.1996,-310.0004 501.1996,-140.7996 501.1996,-140.7996 501.1996,-134.7996 507.1996,-128.7996 513.1996,-128.7996 513.1996,-128.7996 682.4004,-128.7996 682.4004,-128.7996 688.4004,-128.7996 694.4004,-134.7996 694.4004,-140.7996 694.4004,-140.7996 694.4004,-310.0004 694.4004,-310.0004 694.4004,-316.0004 688.4004,-322.0004 682.4004,-322.0004"/>
<text text-anchor="middle" x="597.8" y="-224.2" font-family="Fira Code" font-size="12.00" fill="#0c821d">Ⓜ f&#45;utility/f&#45;utility.js</text>
</g>
<!-- debug.js&#45;&gt;Ⓜ f&#45;utility/f&#45;utility.js -->
<g id="edge1" class="edge">
<title>debug.js&#45;&gt;Ⓜ f&#45;utility/f&#45;utility.js</title>
<path fill="none" stroke="#242424" d="M226.1964,-262.8858C248.348,-274.0313 277.536,-286.6827 305.2,-292.4 356.0368,-302.9064 370.9468,-301.7988 422,-292.4 445.0479,-288.1569 468.986,-281.0292 491.5048,-272.9672"/>
<polygon fill="#242424" stroke="#242424" points="492.8797,-276.1909 501.0621,-269.4605 490.4685,-269.6193 492.8797,-276.1909"/>
</g>
<!-- side&#45;effect.js -->
<g id="node3" class="node">
<title>side&#45;effect.js</title>
<path fill="none" stroke="#242424" stroke-width="4" d="M409.9002,-283.7002C409.9002,-283.7002 317.2998,-283.7002 317.2998,-283.7002 311.2998,-283.7002 305.2998,-277.7002 305.2998,-271.7002 305.2998,-271.7002 305.2998,-179.0998 305.2998,-179.0998 305.2998,-173.0998 311.2998,-167.0998 317.2998,-167.0998 317.2998,-167.0998 409.9002,-167.0998 409.9002,-167.0998 415.9002,-167.0998 421.9002,-173.0998 421.9002,-179.0998 421.9002,-179.0998 421.9002,-271.7002 421.9002,-271.7002 421.9002,-277.7002 415.9002,-283.7002 409.9002,-283.7002"/>
<text text-anchor="middle" x="363.6" y="-223" font-family="Fira Code" font-size="12.00" fill="#242424">side&#45;effect.js</text>
</g>
<!-- debug.js&#45;&gt;side&#45;effect.js -->
<g id="edge2" class="edge">
<title>debug.js&#45;&gt;side&#45;effect.js</title>
<path fill="none" stroke="#242424" d="M226.3433,-238.7947C246.266,-236.8505 271.4995,-234.388 294.8814,-232.1062"/>
<polygon fill="#242424" stroke="#242424" points="295.5042,-235.5621 305.1169,-231.1073 294.8242,-228.5952 295.5042,-235.5621"/>
</g>
<!-- side&#45;effect.js&#45;&gt;Ⓜ f&#45;utility/f&#45;utility.js -->
<g id="edge8" class="edge">
<title>side&#45;effect.js&#45;&gt;Ⓜ f&#45;utility/f&#45;utility.js</title>
<path fill="none" stroke="#242424" d="M422.0944,-225.4C442.9591,-225.4 467.1684,-225.4 490.8226,-225.4"/>
<polygon fill="#242424" stroke="#242424" points="490.9148,-228.9001 500.9148,-225.4 490.9148,-221.9001 490.9148,-228.9001"/>
</g>
<!-- index.js -->
<g id="node4" class="node">
<title>index.js</title>
<path fill="none" stroke="#242424" stroke-width="4" d="M61.4011,-176.0011C61.4011,-176.0011 12.1989,-176.0011 12.1989,-176.0011 6.1989,-176.0011 .1989,-170.0011 .1989,-164.0011 .1989,-164.0011 .1989,-114.7989 .1989,-114.7989 .1989,-108.7989 6.1989,-102.7989 12.1989,-102.7989 12.1989,-102.7989 61.4011,-102.7989 61.4011,-102.7989 67.4011,-102.7989 73.4011,-108.7989 73.4011,-114.7989 73.4011,-114.7989 73.4011,-164.0011 73.4011,-164.0011 73.4011,-170.0011 67.4011,-176.0011 61.4011,-176.0011"/>
<text text-anchor="middle" x="36.8" y="-137" font-family="Fira Code" font-size="12.00" fill="#242424">index.js</text>
</g>
<!-- index.js&#45;&gt;debug.js -->
<g id="edge4" class="edge">
<title>index.js&#45;&gt;debug.js</title>
<path fill="none" stroke="#242424" d="M73.7402,-164.3334C94.9366,-178.6403 121.7137,-196.714 144.164,-211.8672"/>
<polygon fill="#242424" stroke="#242424" points="142.2891,-214.8243 152.5358,-217.5179 146.2053,-209.0223 142.2891,-214.8243"/>
</g>
<!-- index.js&#45;&gt;Ⓜ f&#45;utility/f&#45;utility.js -->
<g id="edge3" class="edge">
<title>index.js&#45;&gt;Ⓜ f&#45;utility/f&#45;utility.js</title>
<path fill="none" stroke="#242424" d="M73.6664,-137.4104C142.8156,-134.514 296.3443,-132.0502 422,-158.4 444.9363,-163.2097 468.8254,-170.5864 491.3315,-178.7134"/>
<polygon fill="#242424" stroke="#242424" points="490.2921,-182.0604 500.8854,-182.237 492.7143,-175.4928 490.2921,-182.0604"/>
</g>
<!-- index.js&#45;&gt;side&#45;effect.js -->
<g id="edge5" class="edge">
<title>index.js&#45;&gt;side&#45;effect.js</title>
<path fill="none" stroke="#242424" d="M73.6529,-149.0981C127.3498,-163.2289 228.026,-189.7226 295.453,-207.4666"/>
<polygon fill="#242424" stroke="#242424" points="294.5889,-210.8583 305.1504,-210.0185 296.3704,-204.0888 294.5889,-210.8583"/>
</g>
<!-- trace.js -->
<g id="node5" class="node">
<title>trace.js</title>
<path fill="none" stroke="#242424" stroke-width="4" d="M214.0011,-111.0011C214.0011,-111.0011 164.7989,-111.0011 164.7989,-111.0011 158.7989,-111.0011 152.7989,-105.0011 152.7989,-99.0011 152.7989,-99.0011 152.7989,-49.7989 152.7989,-49.7989 152.7989,-43.7989 158.7989,-37.7989 164.7989,-37.7989 164.7989,-37.7989 214.0011,-37.7989 214.0011,-37.7989 220.0011,-37.7989 226.0011,-43.7989 226.0011,-49.7989 226.0011,-49.7989 226.0011,-99.0011 226.0011,-99.0011 226.0011,-105.0011 220.0011,-111.0011 214.0011,-111.0011"/>
<text text-anchor="middle" x="189.4" y="-72" font-family="Fira Code" font-size="12.00" fill="#242424">trace.js</text>
</g>
<!-- index.js&#45;&gt;trace.js -->
<g id="edge6" class="edge">
<title>index.js&#45;&gt;trace.js</title>
<path fill="none" stroke="#242424" d="M73.7402,-123.6653C94.6565,-114.756 121.007,-103.532 143.2717,-94.0484"/>
<polygon fill="#242424" stroke="#242424" points="144.7073,-97.2412 152.5358,-90.1023 141.964,-90.8011 144.7073,-97.2412"/>
</g>
<!-- xtrace.js -->
<g id="node6" class="node">
<title>xtrace.js</title>
<path fill="none" stroke="#0c821d" stroke-width="4" d="M391.9002,-80.7002C391.9002,-80.7002 335.2998,-80.7002 335.2998,-80.7002 329.2998,-80.7002 323.2998,-74.7002 323.2998,-68.7002 323.2998,-68.7002 323.2998,-12.0998 323.2998,-12.0998 323.2998,-6.0998 329.2998,-.0998 335.2998,-.0998 335.2998,-.0998 391.9002,-.0998 391.9002,-.0998 397.9002,-.0998 403.9002,-6.0998 403.9002,-12.0998 403.9002,-12.0998 403.9002,-68.7002 403.9002,-68.7002 403.9002,-74.7002 397.9002,-80.7002 391.9002,-80.7002"/>
<text text-anchor="middle" x="363.6" y="-38" font-family="Fira Code" font-size="12.00" fill="#0c821d">xtrace.js</text>
</g>
<!-- index.js&#45;&gt;xtrace.js -->
<g id="edge7" class="edge">
<title>index.js&#45;&gt;xtrace.js</title>
<path fill="none" stroke="#242424" d="M62.7516,-102.5651C83.6239,-76.3747 115.5196,-43.3016 152.6,-28.4 204.3987,-7.5836 269.1575,-15.7495 313.1745,-25.8006"/>
<polygon fill="#242424" stroke="#242424" points="312.5267,-29.2444 323.067,-28.1709 314.1578,-22.4371 312.5267,-29.2444"/>
</g>
<!-- trace.js&#45;&gt;xtrace.js -->
<g id="edge9" class="edge">
<title>trace.js&#45;&gt;xtrace.js</title>
<path fill="none" stroke="#242424" d="M226.3433,-67.1895C251.6049,-62.259 285.4052,-55.6619 313.1424,-50.2482"/>
<polygon fill="#242424" stroke="#242424" points="313.9157,-53.6634 323.06,-48.3125 312.5747,-46.793 313.9157,-53.6634"/>
</g>
</g>
</svg>
