<?xml version="1.0" encoding="UTF-8" standalone="no"?>
<!DOCTYPE svg PUBLIC "-//W3C//DTD SVG 1.1//EN"
 "http://www.w3.org/Graphics/SVG/1.1/DTD/svg11.dtd">
<!-- Generated by graphviz version 2.40.1 (20161225.0304)
 -->
<!-- Title: G Pages: 1 -->
<svg width="331pt" height="975pt"
 viewBox="0.00 0.00 330.64 974.98" xmlns="http://www.w3.org/2000/svg" xmlns:xlink="http://www.w3.org/1999/xlink">
<g id="graph0" class="graph" transform="scale(1 1) rotate(0) translate(7.992 966.992)">
<title>G</title>
<polygon fill="#eeeeff" stroke="transparent" points="-7.992,7.992 -7.992,-966.992 322.6507,-966.992 322.6507,7.992 -7.992,7.992"/>
<!-- core/
index.js -->
<g id="node1" class="node">
<title>core/
index.js</title>
<polygon fill="none" stroke="#242424" stroke-width="4" points="125.2598,-806.2011 52.0576,-806.2011 52.0576,-732.9989 125.2598,-732.9989 125.2598,-806.2011"/>
<text text-anchor="middle" x="88.6587" y="-774.4" font-family="Fira Code" font-size="12.00" fill="#242424">core/</text>
<text text-anchor="middle" x="88.6587" y="-760" font-family="Fira Code" font-size="12.00" fill="#242424">index.js</text>
</g>
<!-- core/
side&#45;effect.js -->
<g id="node2" class="node">
<title>core/
side&#45;effect.js</title>
<polygon fill="none" stroke="#242424" stroke-width="4" points="194.9589,-312.5002 78.3585,-312.5002 78.3585,-195.8998 194.9589,-195.8998 194.9589,-312.5002"/>
<text text-anchor="middle" x="136.6587" y="-259" font-family="Fira Code" font-size="12.00" fill="#242424">core/</text>
<text text-anchor="middle" x="136.6587" y="-244.6" font-family="Fira Code" font-size="12.00" fill="#242424">side&#45;effect.js</text>
</g>
<!-- core/
index.js&#45;&gt;core/
side&#45;effect.js -->
<g id="edge1" class="edge">
<title>core/
index.js&#45;&gt;core/
side&#45;effect.js</title>
<path fill="none" stroke="#242424" d="M92.1736,-732.8345C94.3442,-710.0718 97.1788,-680.2399 99.6587,-653.8 110.5395,-537.7893 122.9947,-402.8126 130.3235,-323.1617"/>
<polygon fill="#242424" stroke="#242424" points="133.8482,-323.0531 131.279,-312.7745 126.8776,-322.4118 133.8482,-323.0531"/>
</g>
<!-- core/
trace.js -->
<g id="node3" class="node">
<title>core/
trace.js</title>
<polygon fill="none" stroke="#242424" stroke-width="4" points="90.2598,-639.2011 17.0576,-639.2011 17.0576,-565.9989 90.2598,-565.9989 90.2598,-639.2011"/>
<text text-anchor="middle" x="53.6587" y="-607.4" font-family="Fira Code" font-size="12.00" fill="#242424">core/</text>
<text text-anchor="middle" x="53.6587" y="-593" font-family="Fira Code" font-size="12.00" fill="#242424">trace.js</text>
</g>
<!-- core/
index.js&#45;&gt;core/
trace.js -->
<g id="edge2" class="edge">
<title>core/
index.js&#45;&gt;core/
trace.js</title>
<path fill="none" stroke="#242424" d="M80.9778,-732.9511C75.8211,-708.3464 68.9826,-675.7171 63.4377,-649.2598"/>
<polygon fill="#242424" stroke="#242424" points="66.859,-648.521 61.3821,-639.4516 60.0078,-649.9569 66.859,-648.521"/>
</g>
<!-- core/
xtrace.js -->
<g id="node4" class="node">
<title>core/
xtrace.js</title>
<polygon fill="none" stroke="#242424" stroke-width="4" points="90.9589,-472.3002 10.3584,-472.3002 10.3584,-391.6998 90.9589,-391.6998 90.9589,-472.3002"/>
<text text-anchor="middle" x="50.6587" y="-436.8" font-family="Fira Code" font-size="12.00" fill="#242424">core/</text>
<text text-anchor="middle" x="50.6587" y="-422.4" font-family="Fira Code" font-size="12.00" fill="#242424">xtrace.js</text>
</g>
<!-- core/
index.js&#45;&gt;core/
xtrace.js -->
<g id="edge3" class="edge">
<title>core/
index.js&#45;&gt;core/
xtrace.js</title>
<path fill="none" stroke="#242424" d="M54.1848,-732.8985C36.5578,-711.5715 16.9104,-683.1677 7.6587,-653.8 -10.5514,-595.9958 8.8839,-527.1708 27.1562,-481.685"/>
<polygon fill="#242424" stroke="#242424" points="30.4314,-482.9238 31.0236,-472.3455 23.9639,-480.2456 30.4314,-482.9238"/>
</g>
<!-- katsu&#45;curry/
katsu&#45;curry.js -->
<g id="node5" class="node">
<title>katsu&#45;curry/
katsu&#45;curry.js</title>
<polygon fill="none" stroke="#0c821d" stroke-width="4" points="194.9589,-116.7002 78.3585,-116.7002 78.3585,-.0998 194.9589,-.0998 194.9589,-116.7002"/>
<text text-anchor="middle" x="136.6587" y="-63.2" font-family="Fira Code" font-size="12.00" fill="#0c821d">katsu&#45;curry/</text>
<text text-anchor="middle" x="136.6587" y="-48.8" font-family="Fira Code" font-size="12.00" fill="#0c821d">katsu&#45;curry.js</text>
</g>
<!-- core/
side&#45;effect.js&#45;&gt;katsu&#45;curry/
katsu&#45;curry.js -->
<g id="edge4" class="edge">
<title>core/
side&#45;effect.js&#45;&gt;katsu&#45;curry/
katsu&#45;curry.js</title>
<path fill="none" stroke="#242424" d="M136.6587,-195.7188C136.6587,-174.1225 136.6587,-149.454 136.6587,-127.039"/>
<polygon fill="#242424" stroke="#242424" points="140.1588,-126.918 136.6587,-116.918 133.1588,-126.918 140.1588,-126.918"/>
</g>
<!-- core/
trace.js&#45;&gt;core/
xtrace.js -->
<g id="edge5" class="edge">
<title>core/
trace.js&#45;&gt;core/
xtrace.js</title>
<path fill="none" stroke="#242424" d="M53.0077,-565.5823C52.5817,-541.3585 52.0196,-509.3887 51.552,-482.7984"/>
<polygon fill="#242424" stroke="#242424" points="55.0467,-482.4613 51.3713,-472.5244 48.0478,-482.5845 55.0467,-482.4613"/>
</g>
<!-- core/
xtrace.js&#45;&gt;core/
side&#45;effect.js -->
<g id="edge7" class="edge">
<title>core/
xtrace.js&#45;&gt;core/
side&#45;effect.js</title>
<path fill="none" stroke="#242424" d="M70.1734,-391.6544C80.1485,-371.0316 92.5558,-345.3801 103.9415,-321.841"/>
<polygon fill="#242424" stroke="#242424" points="107.2099,-323.1216 108.4135,-312.5953 100.9083,-320.0736 107.2099,-323.1216"/>
</g>
<!-- core/
xtrace.js&#45;&gt;katsu&#45;curry/
katsu&#45;curry.js -->
<g id="edge6" class="edge">
<title>core/
xtrace.js&#45;&gt;katsu&#45;curry/
katsu&#45;curry.js</title>
<path fill="none" stroke="#242424" d="M49.3908,-391.515C48.9256,-343.837 51.3705,-262.664 69.6587,-195.8 76.1221,-172.1691 86.6361,-147.7145 97.439,-126.1031"/>
<polygon fill="#242424" stroke="#242424" points="100.6436,-127.5235 102.0755,-117.0258 94.4097,-124.3392 100.6436,-127.5235"/>
</g>
<!-- debug/
index.js -->
<g id="node6" class="node">
<title>debug/
index.js</title>
<polygon fill="none" stroke="#242424" stroke-width="4" points="222.2598,-806.2011 149.0576,-806.2011 149.0576,-732.9989 222.2598,-732.9989 222.2598,-806.2011"/>
<text text-anchor="middle" x="185.6587" y="-774.4" font-family="Fira Code" font-size="12.00" fill="#242424">debug/</text>
<text text-anchor="middle" x="185.6587" y="-760" font-family="Fira Code" font-size="12.00" fill="#242424">index.js</text>
</g>
<!-- debug/
index.js&#45;&gt;core/
side&#45;effect.js -->
<g id="edge9" class="edge">
<title>debug/
index.js&#45;&gt;core/
side&#45;effect.js</title>
<path fill="none" stroke="#242424" d="M182.174,-732.9469C174.0429,-647.421 153.7108,-433.5603 143.1918,-322.9181"/>
<polygon fill="#242424" stroke="#242424" points="146.6669,-322.4885 142.236,-312.8647 139.6983,-323.1511 146.6669,-322.4885"/>
</g>
<!-- f&#45;utility/
f&#45;utility.js -->
<g id="node7" class="node">
<title>f&#45;utility/
f&#45;utility.js</title>
<polygon fill="none" stroke="#0c821d" stroke-width="4" points="287.0595,-654.0008 184.2579,-654.0008 184.2579,-551.1992 287.0595,-551.1992 287.0595,-654.0008"/>
<text text-anchor="middle" x="235.6587" y="-607.4" font-family="Fira Code" font-size="12.00" fill="#0c821d">f&#45;utility/</text>
<text text-anchor="middle" x="235.6587" y="-593" font-family="Fira Code" font-size="12.00" fill="#0c821d">f&#45;utility.js</text>
</g>
<!-- debug/
index.js&#45;&gt;f&#45;utility/
f&#45;utility.js -->
<g id="edge8" class="edge">
<title>debug/
index.js&#45;&gt;f&#45;utility/
f&#45;utility.js</title>
<path fill="none" stroke="#242424" d="M196.6314,-732.9511C202.6934,-712.7042 210.3822,-687.0234 217.3295,-663.8194"/>
<polygon fill="#242424" stroke="#242424" points="220.7393,-664.6332 220.2546,-654.0495 214.0334,-662.6254 220.7393,-664.6332"/>
</g>
<!-- index.js -->
<g id="node8" class="node">
<title>index.js</title>
<polygon fill="none" stroke="#242424" stroke-width="4" points="222.2598,-958.8011 149.0576,-958.8011 149.0576,-885.5989 222.2598,-885.5989 222.2598,-958.8011"/>
<text text-anchor="middle" x="185.6587" y="-919.8" font-family="Fira Code" font-size="12.00" fill="#242424">index.js</text>
</g>
<!-- index.js&#45;&gt;core/
index.js -->
<g id="edge11" class="edge">
<title>index.js&#45;&gt;core/
index.js</title>
<path fill="none" stroke="#242424" d="M162.1777,-885.2598C148.7636,-864.1568 131.8333,-837.5221 117.6016,-815.1329"/>
<polygon fill="#242424" stroke="#242424" points="120.4096,-813.026 112.0914,-806.4642 114.5021,-816.7811 120.4096,-813.026"/>
</g>
<!-- index.js&#45;&gt;katsu&#45;curry/
katsu&#45;curry.js -->
<g id="edge10" class="edge">
<title>index.js&#45;&gt;katsu&#45;curry/
katsu&#45;curry.js</title>
<path fill="none" stroke="#242424" d="M211.4537,-885.2969C249.0992,-827.7294 314.6587,-711.7997 314.6587,-602.6 314.6587,-602.6 314.6587,-602.6 314.6587,-432 314.6587,-315.2579 242.9484,-196.2014 190.5594,-124.7999"/>
<polygon fill="#242424" stroke="#242424" points="193.3632,-122.7049 184.5936,-116.7598 187.7417,-126.8761 193.3632,-122.7049"/>
</g>
<!-- index.js&#45;&gt;debug/
index.js -->
<g id="edge12" class="edge">
<title>index.js&#45;&gt;debug/
index.js</title>
<path fill="none" stroke="#242424" d="M185.6587,-885.2598C185.6587,-864.6236 185.6587,-838.6979 185.6587,-816.6251"/>
<polygon fill="#242424" stroke="#242424" points="189.1588,-816.4642 185.6587,-806.4642 182.1588,-816.4642 189.1588,-816.4642"/>
</g>
</g>
</svg>
