<?xml version="1.0" encoding="UTF-8" standalone="no"?>
<!DOCTYPE svg PUBLIC "-//W3C//DTD SVG 1.1//EN"
 "http://www.w3.org/Graphics/SVG/1.1/DTD/svg11.dtd">
<!-- Generated by graphviz version 2.40.1 (20161225.0304)
 -->
<!-- Title: G Pages: 1 -->
<svg width="586pt" height="1011pt"
 viewBox="0.00 0.00 585.78 1010.98" xmlns="http://www.w3.org/2000/svg" xmlns:xlink="http://www.w3.org/1999/xlink">
<g id="graph0" class="graph" transform="scale(1 1) rotate(0) translate(7.992 1002.992)">
<title>G</title>
<polygon fill="#eeeeff" stroke="transparent" points="-7.992,7.992 -7.992,-1002.992 577.792,-1002.992 577.792,7.992 -7.992,7.992"/>
<!-- core/
index.js -->
<g id="node1" class="node">
<title>core/
index.js</title>
<polygon fill="none" stroke="#242424" stroke-width="4" points="166.6011,-842.2011 93.3989,-842.2011 93.3989,-768.9989 166.6011,-768.9989 166.6011,-842.2011"/>
<text text-anchor="middle" x="130" y="-810.4" font-family="Fira Code" font-size="12.00" fill="#242424">core/</text>
<text text-anchor="middle" x="130" y="-796" font-family="Fira Code" font-size="12.00" fill="#242424">index.js</text>
</g>
<!-- core/
side&#45;effect.js -->
<g id="node2" class="node">
<title>core/
side&#45;effect.js</title>
<polygon fill="none" stroke="#242424" stroke-width="4" points="230.3002,-312.5002 113.6998,-312.5002 113.6998,-195.8998 230.3002,-195.8998 230.3002,-312.5002"/>
<text text-anchor="middle" x="172" y="-259" font-family="Fira Code" font-size="12.00" fill="#242424">core/</text>
<text text-anchor="middle" x="172" y="-244.6" font-family="Fira Code" font-size="12.00" fill="#242424">side&#45;effect.js</text>
</g>
<!-- core/
index.js&#45;&gt;core/
side&#45;effect.js -->
<g id="edge1" class="edge">
<title>core/
index.js&#45;&gt;core/
side&#45;effect.js</title>
<path fill="none" stroke="#242424" d="M132.7883,-768.9941C139.7134,-678.0767 157.7844,-440.83 166.7702,-322.8599"/>
<polygon fill="#242424" stroke="#242424" points="170.2625,-323.0924 167.5322,-312.8555 163.2827,-322.5607 170.2625,-323.0924"/>
</g>
<!-- core/
trace.js -->
<g id="node3" class="node">
<title>core/
trace.js</title>
<polygon fill="none" stroke="#242424" stroke-width="4" points="101.6011,-689.6011 28.3989,-689.6011 28.3989,-616.3989 101.6011,-616.3989 101.6011,-689.6011"/>
<text text-anchor="middle" x="65" y="-657.8" font-family="Fira Code" font-size="12.00" fill="#242424">core/</text>
<text text-anchor="middle" x="65" y="-643.4" font-family="Fira Code" font-size="12.00" fill="#242424">trace.js</text>
</g>
<!-- core/
index.js&#45;&gt;core/
trace.js -->
<g id="edge2" class="edge">
<title>core/
index.js&#45;&gt;core/
trace.js</title>
<path fill="none" stroke="#242424" d="M114.2653,-768.6598C105.356,-747.7435 94.132,-721.393 84.6484,-699.1283"/>
<polygon fill="#242424" stroke="#242424" points="87.8412,-697.6927 80.7023,-689.8642 81.4011,-700.436 87.8412,-697.6927"/>
</g>
<!-- core/
xtrace.js -->
<g id="node4" class="node">
<title>core/
xtrace.js</title>
<polygon fill="none" stroke="#242424" stroke-width="4" points="131.3002,-504.7002 50.6998,-504.7002 50.6998,-424.0998 131.3002,-424.0998 131.3002,-504.7002"/>
<text text-anchor="middle" x="91" y="-469.2" font-family="Fira Code" font-size="12.00" fill="#242424">core/</text>
<text text-anchor="middle" x="91" y="-454.8" font-family="Fira Code" font-size="12.00" fill="#242424">xtrace.js</text>
</g>
<!-- core/
index.js&#45;&gt;core/
xtrace.js -->
<g id="edge3" class="edge">
<title>core/
index.js&#45;&gt;core/
xtrace.js</title>
<path fill="none" stroke="#242424" d="M126.6585,-768.9007C123.1022,-730.7183 117.1501,-669.2153 111,-616.2 107.0817,-582.4235 102.0856,-544.5004 98.0671,-515.0081"/>
<polygon fill="#242424" stroke="#242424" points="101.5141,-514.3813 96.6899,-504.9485 94.5787,-515.3308 101.5141,-514.3813"/>
</g>
<!-- katsu&#45;curry/
katsu&#45;curry.js -->
<g id="node5" class="node">
<title>katsu&#45;curry/
katsu&#45;curry.js</title>
<polygon fill="none" stroke="#0c821d" stroke-width="4" points="155.3002,-116.7002 38.6998,-116.7002 38.6998,-.0998 155.3002,-.0998 155.3002,-116.7002"/>
<text text-anchor="middle" x="97" y="-63.2" font-family="Fira Code" font-size="12.00" fill="#0c821d">katsu&#45;curry/</text>
<text text-anchor="middle" x="97" y="-48.8" font-family="Fira Code" font-size="12.00" fill="#0c821d">katsu&#45;curry.js</text>
</g>
<!-- core/
side&#45;effect.js&#45;&gt;katsu&#45;curry/
katsu&#45;curry.js -->
<g id="edge4" class="edge">
<title>core/
side&#45;effect.js&#45;&gt;katsu&#45;curry/
katsu&#45;curry.js</title>
<path fill="none" stroke="#242424" d="M149.5991,-195.7188C141.2523,-173.9279 131.7073,-149.0093 123.0599,-126.4338"/>
<polygon fill="#242424" stroke="#242424" points="126.2605,-125.0044 119.415,-116.918 119.7236,-127.5083 126.2605,-125.0044"/>
</g>
<!-- core/
trace.js&#45;&gt;core/
xtrace.js -->
<g id="edge5" class="edge">
<title>core/
trace.js&#45;&gt;core/
xtrace.js</title>
<path fill="none" stroke="#242424" d="M70.0748,-616.1883C74.062,-587.2658 79.6576,-546.6763 84.0593,-514.7469"/>
<polygon fill="#242424" stroke="#242424" points="87.5444,-515.0946 85.4429,-504.7103 80.61,-514.1386 87.5444,-515.0946"/>
</g>
<!-- core/
xtrace.js&#45;&gt;core/
side&#45;effect.js -->
<g id="edge7" class="edge">
<title>core/
xtrace.js&#45;&gt;core/
side&#45;effect.js</title>
<path fill="none" stroke="#242424" d="M106.6176,-423.8713C117.6638,-395.2057 132.742,-356.0769 145.6349,-322.619"/>
<polygon fill="#242424" stroke="#242424" points="149.0533,-323.4818 149.3831,-312.8921 142.5214,-320.9648 149.0533,-323.4818"/>
</g>
<!-- core/
xtrace.js&#45;&gt;katsu&#45;curry/
katsu&#45;curry.js -->
<g id="edge6" class="edge">
<title>core/
xtrace.js&#45;&gt;katsu&#45;curry/
katsu&#45;curry.js</title>
<path fill="none" stroke="#242424" d="M91.5972,-423.9869C92.6226,-354.6014 94.7288,-212.0818 95.9872,-126.9311"/>
<polygon fill="#242424" stroke="#242424" points="99.4881,-126.8907 96.1364,-116.84 92.4889,-126.7872 99.4881,-126.8907"/>
</g>
<!-- debug/
effect.js -->
<g id="node6" class="node">
<title>debug/
effect.js</title>
<polygon fill="none" stroke="#242424" stroke-width="4" points="276.3002,-504.7002 195.6998,-504.7002 195.6998,-424.0998 276.3002,-424.0998 276.3002,-504.7002"/>
<text text-anchor="middle" x="236" y="-469.2" font-family="Fira Code" font-size="12.00" fill="#242424">debug/</text>
<text text-anchor="middle" x="236" y="-454.8" font-family="Fira Code" font-size="12.00" fill="#242424">effect.js</text>
</g>
<!-- debug/
effect.js&#45;&gt;core/
side&#45;effect.js -->
<g id="edge8" class="edge">
<title>debug/
effect.js&#45;&gt;core/
side&#45;effect.js</title>
<path fill="none" stroke="#242424" d="M223.6602,-423.8713C214.9323,-395.2057 203.0187,-356.0769 192.8317,-322.619"/>
<polygon fill="#242424" stroke="#242424" points="196.1311,-321.4391 189.8701,-312.8921 189.4346,-323.478 196.1311,-321.4391"/>
</g>
<!-- debug/
wrap.js -->
<g id="node7" class="node">
<title>debug/
wrap.js</title>
<polygon fill="none" stroke="#242424" stroke-width="4" points="328.4012,-287.6012 261.5988,-287.6012 261.5988,-220.7988 328.4012,-220.7988 328.4012,-287.6012"/>
<text text-anchor="middle" x="295" y="-259" font-family="Fira Code" font-size="12.00" fill="#242424">debug/</text>
<text text-anchor="middle" x="295" y="-244.6" font-family="Fira Code" font-size="12.00" fill="#242424">wrap.js</text>
</g>
<!-- debug/
effect.js&#45;&gt;debug/
wrap.js -->
<g id="edge9" class="edge">
<title>debug/
effect.js&#45;&gt;debug/
wrap.js</title>
<path fill="none" stroke="#242424" d="M247.3758,-423.8713C257.5377,-387.6675 272.3842,-334.7737 282.7921,-297.6933"/>
<polygon fill="#242424" stroke="#242424" points="286.2697,-298.2549 285.6024,-287.6811 279.5301,-296.3631 286.2697,-298.2549"/>
</g>
<!-- debug/
wrap.js&#45;&gt;katsu&#45;curry/
katsu&#45;curry.js -->
<g id="edge16" class="edge">
<title>debug/
wrap.js&#45;&gt;katsu&#45;curry/
katsu&#45;curry.js</title>
<path fill="none" stroke="#242424" d="M263.5248,-220.9444C255.5812,-212.6711 247.0273,-203.8637 239,-195.8 214.435,-171.1239 187.0269,-144.4159 162.8918,-121.1663"/>
<polygon fill="#242424" stroke="#242424" points="165.1466,-118.4788 155.5135,-114.0681 160.2935,-123.5233 165.1466,-118.4788"/>
</g>
<!-- debug/
src/index.js -->
<g id="node11" class="node">
<title>debug/
src/index.js</title>
<polygon fill="none" stroke="#0c821d" stroke-width="4" points="448.4008,-109.8008 345.5992,-109.8008 345.5992,-6.9992 448.4008,-6.9992 448.4008,-109.8008"/>
<text text-anchor="middle" x="397" y="-63.2" font-family="Fira Code" font-size="12.00" fill="#0c821d">debug/</text>
<text text-anchor="middle" x="397" y="-48.8" font-family="Fira Code" font-size="12.00" fill="#0c821d">src/index.js</text>
</g>
<!-- debug/
wrap.js&#45;&gt;debug/
src/index.js -->
<g id="edge15" class="edge">
<title>debug/
wrap.js&#45;&gt;debug/
src/index.js</title>
<path fill="none" stroke="#242424" d="M312.3029,-220.9852C326.7979,-193.1604 347.8663,-152.7175 365.3635,-119.1297"/>
<polygon fill="#242424" stroke="#242424" points="368.6794,-120.34 370.1955,-109.8541 362.4713,-117.1059 368.6794,-120.34"/>
</g>
<!-- fp/
map.js -->
<g id="node12" class="node">
<title>fp/
map.js</title>
<polygon fill="none" stroke="#0c821d" stroke-width="4" points="243.7003,-88.1003 184.2997,-88.1003 184.2997,-28.6997 243.7003,-28.6997 243.7003,-88.1003"/>
<text text-anchor="middle" x="214" y="-63.2" font-family="Fira Code" font-size="12.00" fill="#0c821d">fp/</text>
<text text-anchor="middle" x="214" y="-48.8" font-family="Fira Code" font-size="12.00" fill="#0c821d">map.js</text>
</g>
<!-- debug/
wrap.js&#45;&gt;fp/
map.js -->
<g id="edge17" class="edge">
<title>debug/
wrap.js&#45;&gt;fp/
map.js</title>
<path fill="none" stroke="#242424" d="M281.2595,-220.9852C267.1306,-186.8318 245.1373,-133.6676 230.177,-97.5045"/>
<polygon fill="#242424" stroke="#242424" points="233.4025,-96.1452 226.3455,-88.2426 226.9341,-98.8211 233.4025,-96.1452"/>
</g>
<!-- fp/
pipe.js -->
<g id="node13" class="node">
<title>fp/
pipe.js</title>
<polygon fill="none" stroke="#0c821d" stroke-width="4" points="328.4012,-91.8012 261.5988,-91.8012 261.5988,-24.9988 328.4012,-24.9988 328.4012,-91.8012"/>
<text text-anchor="middle" x="295" y="-63.2" font-family="Fira Code" font-size="12.00" fill="#0c821d">fp/</text>
<text text-anchor="middle" x="295" y="-48.8" font-family="Fira Code" font-size="12.00" fill="#0c821d">pipe.js</text>
</g>
<!-- debug/
wrap.js&#45;&gt;fp/
pipe.js -->
<g id="edge18" class="edge">
<title>debug/
wrap.js&#45;&gt;fp/
pipe.js</title>
<path fill="none" stroke="#242424" d="M295,-220.9852C295,-188.2148 295,-137.9422 295,-101.9789"/>
<polygon fill="#242424" stroke="#242424" points="298.5001,-101.7777 295,-91.7777 291.5001,-101.7778 298.5001,-101.7777"/>
</g>
<!-- debug/
index.js -->
<g id="node8" class="node">
<title>debug/
index.js</title>
<polygon fill="none" stroke="#242424" stroke-width="4" points="340.6011,-689.6011 267.3989,-689.6011 267.3989,-616.3989 340.6011,-616.3989 340.6011,-689.6011"/>
<text text-anchor="middle" x="304" y="-657.8" font-family="Fira Code" font-size="12.00" fill="#242424">debug/</text>
<text text-anchor="middle" x="304" y="-643.4" font-family="Fira Code" font-size="12.00" fill="#242424">index.js</text>
</g>
<!-- debug/
index.js&#45;&gt;debug/
effect.js -->
<g id="edge10" class="edge">
<title>debug/
index.js&#45;&gt;debug/
effect.js</title>
<path fill="none" stroke="#242424" d="M290.7275,-616.1883C280.2543,-587.1406 265.538,-546.3246 254.0033,-514.3327"/>
<polygon fill="#242424" stroke="#242424" points="257.2183,-512.9304 250.5339,-504.7103 250.6333,-515.3047 257.2183,-512.9304"/>
</g>
<!-- debug/
index.js&#45;&gt;debug/
wrap.js -->
<g id="edge13" class="edge">
<title>debug/
index.js&#45;&gt;debug/
wrap.js</title>
<path fill="none" stroke="#242424" d="M303.1694,-616.1967C301.5036,-542.3809 297.7619,-376.5807 295.9797,-297.611"/>
<polygon fill="#242424" stroke="#242424" points="299.4767,-297.434 295.7519,-287.5155 292.4785,-297.592 299.4767,-297.434"/>
</g>
<!-- debug/
make&#45;inspectors.js -->
<g id="node9" class="node">
<title>debug/
make&#45;inspectors.js</title>
<polygon fill="none" stroke="#0c821d" stroke-width="4" points="569.6005,-537.0005 424.3995,-537.0005 424.3995,-391.7995 569.6005,-391.7995 569.6005,-537.0005"/>
<text text-anchor="middle" x="497" y="-469.2" font-family="Fira Code" font-size="12.00" fill="#0c821d">debug/</text>
<text text-anchor="middle" x="497" y="-454.8" font-family="Fira Code" font-size="12.00" fill="#0c821d">make&#45;inspectors.js</text>
</g>
<!-- debug/
index.js&#45;&gt;debug/
make&#45;inspectors.js -->
<g id="edge11" class="edge">
<title>debug/
index.js&#45;&gt;debug/
make&#45;inspectors.js</title>
<path fill="none" stroke="#242424" d="M340.7561,-617.0819C362.2498,-596.0782 390.2627,-568.7039 416.6236,-542.944"/>
<polygon fill="#242424" stroke="#242424" points="419.3021,-545.2202 424.0081,-535.7278 414.4098,-540.2137 419.3021,-545.2202"/>
</g>
<!-- debug/
trace.js -->
<g id="node10" class="node">
<title>debug/
trace.js</title>
<polygon fill="none" stroke="#242424" stroke-width="4" points="405.6011,-501.0011 332.3989,-501.0011 332.3989,-427.7989 405.6011,-427.7989 405.6011,-501.0011"/>
<text text-anchor="middle" x="369" y="-469.2" font-family="Fira Code" font-size="12.00" fill="#242424">debug/</text>
<text text-anchor="middle" x="369" y="-454.8" font-family="Fira Code" font-size="12.00" fill="#242424">trace.js</text>
</g>
<!-- debug/
index.js&#45;&gt;debug/
trace.js -->
<g id="edge12" class="edge">
<title>debug/
index.js&#45;&gt;debug/
trace.js</title>
<path fill="none" stroke="#242424" d="M316.687,-616.1883C327.0664,-586.072 341.8056,-543.3055 352.9951,-510.8387"/>
<polygon fill="#242424" stroke="#242424" points="356.3956,-511.7136 356.345,-501.1189 349.7776,-509.4327 356.3956,-511.7136"/>
</g>
<!-- debug/
trace.js&#45;&gt;debug/
wrap.js -->
<g id="edge14" class="edge">
<title>debug/
trace.js&#45;&gt;debug/
wrap.js</title>
<path fill="none" stroke="#242424" d="M356.1102,-427.786C343.338,-391.5062 323.7769,-335.9421 310.2415,-297.4942"/>
<polygon fill="#242424" stroke="#242424" points="313.3886,-295.8932 306.7664,-287.623 306.7858,-298.2178 313.3886,-295.8932"/>
</g>
<!-- index.js -->
<g id="node14" class="node">
<title>index.js</title>
<polygon fill="none" stroke="#242424" stroke-width="4" points="166.6011,-994.8011 93.3989,-994.8011 93.3989,-921.5989 166.6011,-921.5989 166.6011,-994.8011"/>
<text text-anchor="middle" x="130" y="-955.8" font-family="Fira Code" font-size="12.00" fill="#242424">index.js</text>
</g>
<!-- index.js&#45;&gt;core/
index.js -->
<g id="edge20" class="edge">
<title>index.js&#45;&gt;core/
index.js</title>
<path fill="none" stroke="#242424" d="M130,-921.2598C130,-900.6236 130,-874.6979 130,-852.6251"/>
<polygon fill="#242424" stroke="#242424" points="133.5001,-852.4642 130,-842.4642 126.5001,-852.4642 133.5001,-852.4642"/>
</g>
<!-- index.js&#45;&gt;katsu&#45;curry/
katsu&#45;curry.js -->
<g id="edge19" class="edge">
<title>index.js&#45;&gt;katsu&#45;curry/
katsu&#45;curry.js</title>
<path fill="none" stroke="#242424" d="M102.7477,-921.3457C64.6276,-866.0427 0,-756.9546 0,-653 0,-653 0,-653 0,-464.4 0,-342.7058 41.7365,-205.9717 70.4553,-126.2905"/>
<polygon fill="#242424" stroke="#242424" points="73.756,-127.4549 73.8893,-116.8609 67.1786,-125.0595 73.756,-127.4549"/>
</g>
<!-- index.js&#45;&gt;debug/
index.js -->
<g id="edge21" class="edge">
<title>index.js&#45;&gt;debug/
index.js</title>
<path fill="none" stroke="#242424" d="M150.9885,-921.3857C182.7991,-865.5892 243.1729,-759.6921 277.8131,-698.9323"/>
<polygon fill="#242424" stroke="#242424" points="281.0248,-700.3657 282.9371,-689.9448 274.9437,-696.8987 281.0248,-700.3657"/>
</g>
</g>
</svg>
