<?xml version="1.0" encoding="UTF-8" standalone="no"?>
<!DOCTYPE svg PUBLIC "-//W3C//DTD SVG 1.1//EN"
 "http://www.w3.org/Graphics/SVG/1.1/DTD/svg11.dtd">
<!-- Generated by graphviz version 2.40.1 (20161225.0304)
 -->
<!-- Title: G Pages: 1 -->
<svg width="587pt" height="1018pt"
 viewBox="0.00 0.00 586.79 1018.18" xmlns="http://www.w3.org/2000/svg" xmlns:xlink="http://www.w3.org/1999/xlink">
<g id="graph0" class="graph" transform="scale(1 1) rotate(0) translate(7.992 1010.192)">
<title>G</title>
<polygon fill="#eeeeff" stroke="transparent" points="-7.992,7.992 -7.992,-1010.192 578.7989,-1010.192 578.7989,7.992 -7.992,7.992"/>
<!-- core/
index.js -->
<g id="node1" class="node">
<title>core/
index.js</title>
<polygon fill="none" stroke="#242424" stroke-width="4" points="144.7174,-849.4011 71.5153,-849.4011 71.5153,-776.1989 144.7174,-776.1989 144.7174,-849.4011"/>
<text text-anchor="middle" x="108.1163" y="-817.6" font-family="Fira Code" font-size="12.00" fill="#242424">core/</text>
<text text-anchor="middle" x="108.1163" y="-803.2" font-family="Fira Code" font-size="12.00" fill="#242424">index.js</text>
</g>
<!-- core/
side&#45;effect.js -->
<g id="node2" class="node">
<title>core/
side&#45;effect.js</title>
<polygon fill="none" stroke="#242424" stroke-width="4" points="149.4165,-312.5002 32.8162,-312.5002 32.8162,-195.8998 149.4165,-195.8998 149.4165,-312.5002"/>
<text text-anchor="middle" x="91.1163" y="-259" font-family="Fira Code" font-size="12.00" fill="#242424">core/</text>
<text text-anchor="middle" x="91.1163" y="-244.6" font-family="Fira Code" font-size="12.00" fill="#242424">side&#45;effect.js</text>
</g>
<!-- core/
index.js&#45;&gt;core/
side&#45;effect.js -->
<g id="edge1" class="edge">
<title>core/
index.js&#45;&gt;core/
side&#45;effect.js</title>
<path fill="none" stroke="#242424" d="M89.3772,-776.0729C79.0906,-753.8247 67.3812,-724.5146 62.1163,-697 37.0917,-566.2181 59.077,-410.19 76.0015,-322.62"/>
<polygon fill="#242424" stroke="#242424" points="79.4361,-323.2933 77.9328,-312.8057 72.5678,-321.9417 79.4361,-323.2933"/>
</g>
<!-- core/
trace.js -->
<g id="node3" class="node">
<title>core/
trace.js</title>
<polygon fill="none" stroke="#242424" stroke-width="4" points="144.7174,-660.8011 71.5153,-660.8011 71.5153,-587.5989 144.7174,-587.5989 144.7174,-660.8011"/>
<text text-anchor="middle" x="108.1163" y="-629" font-family="Fira Code" font-size="12.00" fill="#242424">core/</text>
<text text-anchor="middle" x="108.1163" y="-614.6" font-family="Fira Code" font-size="12.00" fill="#242424">trace.js</text>
</g>
<!-- core/
index.js&#45;&gt;core/
trace.js -->
<g id="edge2" class="edge">
<title>core/
index.js&#45;&gt;core/
trace.js</title>
<path fill="none" stroke="#242424" d="M108.1163,-775.9883C108.1163,-746.0018 108.1163,-703.474 108.1163,-671.0591"/>
<polygon fill="#242424" stroke="#242424" points="111.6164,-670.9188 108.1163,-660.9189 104.6164,-670.9189 111.6164,-670.9188"/>
</g>
<!-- core/
xtrace.js -->
<g id="node4" class="node">
<title>core/
xtrace.js</title>
<polygon fill="none" stroke="#242424" stroke-width="4" points="213.4166,-472.3002 132.8161,-472.3002 132.8161,-391.6998 213.4166,-391.6998 213.4166,-472.3002"/>
<text text-anchor="middle" x="173.1163" y="-436.8" font-family="Fira Code" font-size="12.00" fill="#242424">core/</text>
<text text-anchor="middle" x="173.1163" y="-422.4" font-family="Fira Code" font-size="12.00" fill="#242424">xtrace.js</text>
</g>
<!-- core/
index.js&#45;&gt;core/
xtrace.js -->
<g id="edge3" class="edge">
<title>core/
index.js&#45;&gt;core/
xtrace.js</title>
<path fill="none" stroke="#242424" d="M126.0206,-776.18C136.0821,-753.8475 147.8463,-724.4141 154.1163,-697 170.8439,-623.8633 173.9852,-536.684 174.0521,-482.8322"/>
<polygon fill="#242424" stroke="#242424" points="177.5514,-482.5119 174.0276,-472.5203 170.5515,-482.5286 177.5514,-482.5119"/>
</g>
<!-- katsu&#45;curry/
katsu&#45;curry.js -->
<g id="node5" class="node">
<title>katsu&#45;curry/
katsu&#45;curry.js</title>
<polygon fill="none" stroke="#0c821d" stroke-width="4" points="192.4165,-116.7002 75.8162,-116.7002 75.8162,-.0998 192.4165,-.0998 192.4165,-116.7002"/>
<text text-anchor="middle" x="134.1163" y="-63.2" font-family="Fira Code" font-size="12.00" fill="#0c821d">katsu&#45;curry/</text>
<text text-anchor="middle" x="134.1163" y="-48.8" font-family="Fira Code" font-size="12.00" fill="#0c821d">katsu&#45;curry.js</text>
</g>
<!-- core/
side&#45;effect.js&#45;&gt;katsu&#45;curry/
katsu&#45;curry.js -->
<g id="edge4" class="edge">
<title>core/
side&#45;effect.js&#45;&gt;katsu&#45;curry/
katsu&#45;curry.js</title>
<path fill="none" stroke="#242424" d="M103.9595,-195.7188C108.7237,-174.0252 114.1686,-149.2317 119.1089,-126.7363"/>
<polygon fill="#242424" stroke="#242424" points="122.5385,-127.436 121.2651,-116.918 115.7015,-125.9345 122.5385,-127.436"/>
</g>
<!-- core/
trace.js&#45;&gt;core/
xtrace.js -->
<g id="edge5" class="edge">
<title>core/
trace.js&#45;&gt;core/
xtrace.js</title>
<path fill="none" stroke="#242424" d="M120.4953,-587.5962C130.6199,-557.6588 145.0395,-515.0211 156.2246,-481.9476"/>
<polygon fill="#242424" stroke="#242424" points="159.5469,-483.0486 159.4351,-472.4544 152.9159,-480.806 159.5469,-483.0486"/>
</g>
<!-- core/
xtrace.js&#45;&gt;core/
side&#45;effect.js -->
<g id="edge7" class="edge">
<title>core/
xtrace.js&#45;&gt;core/
side&#45;effect.js</title>
<path fill="none" stroke="#242424" d="M154.5093,-391.6544C144.9982,-371.0316 133.1679,-345.3801 122.3118,-321.841"/>
<polygon fill="#242424" stroke="#242424" points="125.4141,-320.2103 118.0478,-312.5953 119.0576,-323.142 125.4141,-320.2103"/>
</g>
<!-- core/
xtrace.js&#45;&gt;katsu&#45;curry/
katsu&#45;curry.js -->
<g id="edge6" class="edge">
<title>core/
xtrace.js&#45;&gt;katsu&#45;curry/
katsu&#45;curry.js</title>
<path fill="none" stroke="#242424" d="M171.8871,-391.3359C170.1483,-344.1724 166.2307,-264.145 158.1163,-195.8 155.4425,-173.279 151.5128,-148.8464 147.6041,-126.9152"/>
<polygon fill="#242424" stroke="#242424" points="151.0401,-126.247 145.8143,-117.0306 144.1521,-127.4943 151.0401,-126.247"/>
</g>
<!-- debug/
effect.js -->
<g id="node6" class="node">
<title>debug/
effect.js</title>
<polygon fill="none" stroke="#242424" stroke-width="4" points="373.4166,-664.5002 292.8161,-664.5002 292.8161,-583.8998 373.4166,-583.8998 373.4166,-664.5002"/>
<text text-anchor="middle" x="333.1163" y="-629" font-family="Fira Code" font-size="12.00" fill="#242424">debug/</text>
<text text-anchor="middle" x="333.1163" y="-614.6" font-family="Fira Code" font-size="12.00" fill="#242424">effect.js</text>
</g>
<!-- debug/
effect.js&#45;&gt;core/
side&#45;effect.js -->
<g id="edge8" class="edge">
<title>debug/
effect.js&#45;&gt;core/
side&#45;effect.js</title>
<path fill="none" stroke="#242424" d="M318.4022,-583.8675C299.8607,-535.771 265.1528,-454.0488 222.1163,-391.6 203.384,-364.4182 179.2567,-337.4734 156.8234,-314.7411"/>
<polygon fill="#242424" stroke="#242424" points="159.1504,-312.118 149.6084,-307.5135 154.1963,-317.0635 159.1504,-312.118"/>
</g>
<!-- debug/
wrap.js -->
<g id="node7" class="node">
<title>debug/
wrap.js</title>
<polygon fill="none" stroke="#242424" stroke-width="4" points="366.5175,-465.4012 299.7151,-465.4012 299.7151,-398.5988 366.5175,-398.5988 366.5175,-465.4012"/>
<text text-anchor="middle" x="333.1163" y="-436.8" font-family="Fira Code" font-size="12.00" fill="#242424">debug/</text>
<text text-anchor="middle" x="333.1163" y="-422.4" font-family="Fira Code" font-size="12.00" fill="#242424">wrap.js</text>
</g>
<!-- debug/
effect.js&#45;&gt;debug/
wrap.js -->
<g id="edge9" class="edge">
<title>debug/
effect.js&#45;&gt;debug/
wrap.js</title>
<path fill="none" stroke="#242424" d="M333.1163,-583.4393C333.1163,-551.7207 333.1163,-507.801 333.1163,-475.4245"/>
<polygon fill="#242424" stroke="#242424" points="336.6164,-475.3483 333.1163,-465.3483 329.6164,-475.3484 336.6164,-475.3483"/>
</g>
<!-- debug/
wrap.js&#45;&gt;katsu&#45;curry/
katsu&#45;curry.js -->
<g id="edge17" class="edge">
<title>debug/
wrap.js&#45;&gt;katsu&#45;curry/
katsu&#45;curry.js</title>
<path fill="none" stroke="#242424" d="M300.5281,-398.6749C279.5177,-375.8592 252.7413,-344.1321 234.1163,-312.6 199.0364,-253.2096 171.5382,-179.2496 154.3303,-126.4467"/>
<polygon fill="#242424" stroke="#242424" points="157.6341,-125.2876 151.2375,-116.8417 150.971,-127.4332 157.6341,-125.2876"/>
</g>
<!-- debug/
src/index.js -->
<g id="node11" class="node">
<title>debug/
src/index.js</title>
<polygon fill="none" stroke="#0c821d" stroke-width="4" points="507.5171,-305.6008 404.7155,-305.6008 404.7155,-202.7992 507.5171,-202.7992 507.5171,-305.6008"/>
<text text-anchor="middle" x="456.1163" y="-259" font-family="Fira Code" font-size="12.00" fill="#0c821d">debug/</text>
<text text-anchor="middle" x="456.1163" y="-244.6" font-family="Fira Code" font-size="12.00" fill="#0c821d">src/index.js</text>
</g>
<!-- debug/
wrap.js&#45;&gt;debug/
src/index.js -->
<g id="edge16" class="edge">
<title>debug/
wrap.js&#45;&gt;debug/
src/index.js</title>
<path fill="none" stroke="#242424" d="M356.2517,-398.5572C372.6488,-374.8546 395.1041,-342.3949 414.5688,-314.2582"/>
<polygon fill="#242424" stroke="#242424" points="417.6926,-315.8945 420.5035,-305.6793 411.9359,-311.912 417.6926,-315.8945"/>
</g>
<!-- fp/
map.js -->
<g id="node12" class="node">
<title>fp/
map.js</title>
<polygon fill="none" stroke="#0c821d" stroke-width="4" points="302.8167,-283.9003 243.416,-283.9003 243.416,-224.4997 302.8167,-224.4997 302.8167,-283.9003"/>
<text text-anchor="middle" x="273.1163" y="-259" font-family="Fira Code" font-size="12.00" fill="#0c821d">fp/</text>
<text text-anchor="middle" x="273.1163" y="-244.6" font-family="Fira Code" font-size="12.00" fill="#0c821d">map.js</text>
</g>
<!-- debug/
wrap.js&#45;&gt;fp/
map.js -->
<g id="edge18" class="edge">
<title>debug/
wrap.js&#45;&gt;fp/
map.js</title>
<path fill="none" stroke="#242424" d="M321.8308,-398.5572C311.7837,-368.7844 297.074,-325.1947 286.4496,-293.7109"/>
<polygon fill="#242424" stroke="#242424" points="289.6685,-292.3031 283.1548,-283.9472 283.036,-294.5414 289.6685,-292.3031"/>
</g>
<!-- fp/
pipe.js -->
<g id="node13" class="node">
<title>fp/
pipe.js</title>
<polygon fill="none" stroke="#0c821d" stroke-width="4" points="387.5175,-287.6012 320.7151,-287.6012 320.7151,-220.7988 387.5175,-220.7988 387.5175,-287.6012"/>
<text text-anchor="middle" x="354.1163" y="-259" font-family="Fira Code" font-size="12.00" fill="#0c821d">fp/</text>
<text text-anchor="middle" x="354.1163" y="-244.6" font-family="Fira Code" font-size="12.00" fill="#0c821d">pipe.js</text>
</g>
<!-- debug/
wrap.js&#45;&gt;fp/
pipe.js -->
<g id="edge19" class="edge">
<title>debug/
wrap.js&#45;&gt;fp/
pipe.js</title>
<path fill="none" stroke="#242424" d="M337.0663,-398.5572C340.4394,-369.9978 345.3142,-328.7248 348.9881,-297.619"/>
<polygon fill="#242424" stroke="#242424" points="352.4869,-297.8344 350.1841,-287.4929 345.5352,-297.0133 352.4869,-297.8344"/>
</g>
<!-- debug/
index.js -->
<g id="node8" class="node">
<title>debug/
index.js</title>
<polygon fill="none" stroke="#242424" stroke-width="4" points="369.7174,-849.4011 296.5153,-849.4011 296.5153,-776.1989 369.7174,-776.1989 369.7174,-849.4011"/>
<text text-anchor="middle" x="333.1163" y="-817.6" font-family="Fira Code" font-size="12.00" fill="#242424">debug/</text>
<text text-anchor="middle" x="333.1163" y="-803.2" font-family="Fira Code" font-size="12.00" fill="#242424">index.js</text>
</g>
<!-- debug/
index.js&#45;&gt;debug/
effect.js -->
<g id="edge10" class="edge">
<title>debug/
index.js&#45;&gt;debug/
effect.js</title>
<path fill="none" stroke="#242424" d="M333.1163,-775.9883C333.1163,-747.0658 333.1163,-706.4763 333.1163,-674.5469"/>
<polygon fill="#242424" stroke="#242424" points="336.6164,-674.5102 333.1163,-664.5103 329.6164,-674.5103 336.6164,-674.5102"/>
</g>
<!-- debug/
index.js&#45;&gt;debug/
wrap.js -->
<g id="edge13" class="edge">
<title>debug/
index.js&#45;&gt;debug/
wrap.js</title>
<path fill="none" stroke="#242424" d="M369.7242,-805.0355C419.8069,-792.2275 507.827,-761.3986 546.1163,-697 579.1875,-641.3778 578.8266,-607.2352 546.1163,-551.4 509.5534,-488.9885 427.1087,-456.7312 376.1852,-442.1573"/>
<polygon fill="#242424" stroke="#242424" points="377.0142,-438.7554 366.4438,-439.4746 375.1556,-445.5041 377.0142,-438.7554"/>
</g>
<!-- debug/
make&#45;inspectors.js -->
<g id="node9" class="node">
<title>debug/
make&#45;inspectors.js</title>
<polygon fill="none" stroke="#0c821d" stroke-width="4" points="536.7169,-696.8005 391.5158,-696.8005 391.5158,-551.5995 536.7169,-551.5995 536.7169,-696.8005"/>
<text text-anchor="middle" x="464.1163" y="-629" font-family="Fira Code" font-size="12.00" fill="#0c821d">debug/</text>
<text text-anchor="middle" x="464.1163" y="-614.6" font-family="Fira Code" font-size="12.00" fill="#0c821d">make&#45;inspectors.js</text>
</g>
<!-- debug/
index.js&#45;&gt;debug/
make&#45;inspectors.js -->
<g id="edge11" class="edge">
<title>debug/
index.js&#45;&gt;debug/
make&#45;inspectors.js</title>
<path fill="none" stroke="#242424" d="M358.6854,-775.9883C372.7339,-755.7628 390.7453,-729.8318 407.8914,-705.1468"/>
<polygon fill="#242424" stroke="#242424" points="410.8357,-707.043 413.6659,-696.8332 405.0865,-703.0496 410.8357,-707.043"/>
</g>
<!-- debug/
trace.js -->
<g id="node10" class="node">
<title>debug/
trace.js</title>
<polygon fill="none" stroke="#242424" stroke-width="4" points="274.7174,-660.8011 201.5153,-660.8011 201.5153,-587.5989 274.7174,-587.5989 274.7174,-660.8011"/>
<text text-anchor="middle" x="238.1163" y="-629" font-family="Fira Code" font-size="12.00" fill="#242424">debug/</text>
<text text-anchor="middle" x="238.1163" y="-614.6" font-family="Fira Code" font-size="12.00" fill="#242424">trace.js</text>
</g>
<!-- debug/
index.js&#45;&gt;debug/
trace.js -->
<g id="edge12" class="edge">
<title>debug/
index.js&#45;&gt;debug/
trace.js</title>
<path fill="none" stroke="#242424" d="M314.5739,-775.9883C299.3385,-745.7422 277.6761,-702.7366 261.2969,-670.2194"/>
<polygon fill="#242424" stroke="#242424" points="264.2366,-668.2753 256.612,-660.9189 257.9849,-671.4244 264.2366,-668.2753"/>
</g>
<!-- debug/
trace.js&#45;&gt;core/
xtrace.js -->
<g id="edge14" class="edge">
<title>debug/
trace.js&#45;&gt;core/
xtrace.js</title>
<path fill="none" stroke="#242424" d="M225.7373,-587.5962C215.6128,-557.6588 201.1932,-515.0211 190.0081,-481.9476"/>
<polygon fill="#242424" stroke="#242424" points="193.3168,-480.806 186.7976,-472.4544 186.6858,-483.0486 193.3168,-480.806"/>
</g>
<!-- debug/
trace.js&#45;&gt;debug/
wrap.js -->
<g id="edge15" class="edge">
<title>debug/
trace.js&#45;&gt;debug/
wrap.js</title>
<path fill="none" stroke="#242424" d="M256.2087,-587.5962C272.1522,-555.34 295.3832,-508.3401 312.1366,-474.4453"/>
<polygon fill="#242424" stroke="#242424" points="315.3853,-475.7714 316.6787,-465.2558 309.11,-472.6697 315.3853,-475.7714"/>
</g>
<!-- index.js -->
<g id="node14" class="node">
<title>index.js</title>
<polygon fill="none" stroke="#242424" stroke-width="4" points="144.7174,-1002.0011 71.5153,-1002.0011 71.5153,-928.7989 144.7174,-928.7989 144.7174,-1002.0011"/>
<text text-anchor="middle" x="108.1163" y="-963" font-family="Fira Code" font-size="12.00" fill="#242424">index.js</text>
</g>
<!-- index.js&#45;&gt;core/
index.js -->
<g id="edge21" class="edge">
<title>index.js&#45;&gt;core/
index.js</title>
<path fill="none" stroke="#242424" d="M108.1163,-928.4598C108.1163,-907.8236 108.1163,-881.8979 108.1163,-859.8251"/>
<polygon fill="#242424" stroke="#242424" points="111.6164,-859.6642 108.1163,-849.6642 104.6164,-859.6642 111.6164,-859.6642"/>
</g>
<!-- index.js&#45;&gt;katsu&#45;curry/
katsu&#45;curry.js -->
<g id="edge20" class="edge">
<title>index.js&#45;&gt;katsu&#45;curry/
katsu&#45;curry.js</title>
<path fill="none" stroke="#242424" d="M89.2245,-928.6338C59.4893,-867.2569 5.1163,-739.29 5.1163,-624.2 5.1163,-624.2 5.1163,-624.2 5.1163,-432 5.1163,-326.6831 -14.721,-293.6944 24.1163,-195.8 34.4533,-169.7444 51.5067,-144.7192 69.1356,-123.3317"/>
<polygon fill="#242424" stroke="#242424" points="71.8684,-125.5204 75.6451,-115.6215 66.5197,-121.0046 71.8684,-125.5204"/>
</g>
<!-- index.js&#45;&gt;debug/
index.js -->
<g id="edge22" class="edge">
<title>index.js&#45;&gt;debug/
index.js</title>
<path fill="none" stroke="#242424" d="M144.7672,-940.5425C183.9107,-913.9946 245.9856,-871.894 288.0796,-843.3449"/>
<polygon fill="#242424" stroke="#242424" points="290.1696,-846.1565 296.4811,-837.6468 286.2404,-840.3633 290.1696,-846.1565"/>
</g>
</g>
</svg>
