<svg id="Layer_1" xmlns="http://www.w3.org/2000/svg" width="229.8" height="73.9" viewBox="-255.8 464.1 229.8 73.9"><style>.st0{fill:#EC1E24;}</style><path class="st0" d="M-237.9 492.7c-1.3-.1-5.7 3.9-9 11.3-.4 1-1.4 1.1-1.8.2-.5-1.5-.1-3.9.7-5.9 2.1-5.3 8.4-10.9 13.9-9.9 3.4.7 4.8 2.9 5.8 7.7.5 2.6 1.1 5.9 1.5 9.4 5.9-4.8 11.8-10.2 16.5-16.1 1.1-1.4 2.2-1.5 2.2.2 0 3.6-2.2 6.8-5.9 11.1-2.4 2.7-6.8 6.3-12 10.4.8 4.6 1.3 9.1 1.9 12 .9 4.4 2.2 5.9 3.5 6 4.1.2 8.8-7.8 12-14.5.4-1 1.3-1.1 1.6-.2.5 1.3.5 3.9-1 6.9-3.3 6.5-9 11.5-14.5 11.5-5.8 0-8.9-3.4-10.2-12.5-.1-.7-.2-1.9-.4-3.2-5.4 4.5-10.8 9.5-15.1 15-.9 1-2.7 1.5-2.5-.3.3-3.7 2.5-7 6.6-11.4 2.6-2.9 6.3-5.8 10.3-9.1-1.2-8.2-3-18.5-4.1-18.6z"/><path d="M-31.3 514.2c-.4-1-1.3-1-1.9-.1-4.7 7.2-12.7 16-21.8 15.6-5.8-.3-8.4-7.2-4.9-17.3 7.7 6.3 15 3.4 20.4-3.2 4.6-5.6 5.5-12.3 3.5-14.9-1.8-2.4-3.7-4.1-6.5-5.7-5.5-3.2-16.7 2.5-23.8 16.7-1.9 3.8-3 7.7-3.2 11.2-4.6 6.4-11.8 13.4-20 13.3-6.5-.1-8.8-9.2-2.7-21.6 4.9-10 13.2-17 15-15.5 1.5 1.2-1.8 5.9-3 9.9-1.5 4.9 0 8.2 2.6 9.5 1.4.8 1.9.4 2.3-.9 2.2-5.9 6.6-11.7 4.3-16.3-1.3-2.5-3.1-4.3-6-6-5.5-3.3-16.6 2.6-23.6 16.5-2.2 4.5-3.3 8.9-3.3 12.8-3.8 6.3-8.7 11.7-12.5 11.9-3.7.2-3.6-4.5-.9-10.6 2.6-5.8 8.1-14 10.5-19 2.6-5.5 1.8-10.2.1-12.2-.8-1-1.6-.8-2.6.7-1.2 1.8-2.5 4.1-3.9 6.7.2-4.3-2-7.9-6.7-7.9-5.5 0-14.2 4.9-23 17.9-2.3 3.3-3.8 6.6-4.8 9.8-3.6 8-9.1 14.8-13.5 14.6-3.3-.1-4.7-4.5-2.7-10.5 1.9-5.8 7.3-13.2 12.6-19.1 3.3-3.7.4-8.7-1.6-11.1-1-1.1-1.8-.8-3.2.2-4.1 2.9-8.1 4.7-12 5 3-7.1 4.1-13.9.4-13.7-4.5.2-15.2 15-7 18.3-6.8 17-18.3 30.5-24.9 30.7-4.5.1-6-6.6-2.3-14.8 4.2-9.2 10.5-19.7 14.8-27.2 3-.2 5.7-.2 7.9-.1 1.6.1 2.2-.4 1.5-1.6-1-1.8-3.1-3.6-6.6-3.8 2.6-5.8 2.7-9.7 1.5-12.6-.5-1.4-1.6-1.5-2.6 0-2 2.4-4.9 7.6-8.3 13.6-2.6.2-5.5.5-9 .3-1.6-.1-2.2.8-1.2 2.2 1 1.4 3.4 3 7 3.1-4.7 8.4-9.4 17.8-11.6 23.1-5.3 12.6.7 21 8 21 11.5 0 22.9-16.6 30.2-33.1 3.6 0 8.4-1.1 13.4-4.2-4.7 5.3-11.4 13.5-13.7 20.8-2.7 8.8.5 16.3 8.9 16.7 4.9.2 10.1-2.9 13.4-7.6 1 4.4 3.9 7.3 8.6 7.3 5.3 0 10.2-4.1 13.7-8.6 0 5.2 3.1 8.7 9 9 5.1.3 10.8-4 14.2-9 2 5.3 6.7 8.8 13.8 8.7 7.7-.1 15.6-4.7 20.1-10.4 1.5 6.3 6.5 10.7 14.4 10.5 8.4-.1 16.9-5.2 21.5-11.8 1.8-3.3 2.1-6.3 1.7-7.2zm-26.8-6.2c5.2-10.4 14.3-17 16.6-15.1 1.5 1.2-.9 6.9-4.4 11.5-3.2 4.2-7.7 8.9-13.1 5.5.3-.5.6-1.2.9-1.9zm-80.5 21c-4.3-.1-2.9-9.8 3-19.2 6-9.8 14-16.9 17.6-16.6 3.2.3 2.2 7.1-4.7 19.2-5.7 9.7-11.4 16.7-15.9 16.6z"/></svg>